# Blender v2.78 (sub 0) OBJ File: ''
# www.blender.org
mtllib start.mtl
o start
v -1.500000 0.000000 0.499998
v -1.500000 4.000000 0.500000
v -1.500000 4.000000 -0.500000
v -1.500000 0.000000 -0.500002
v 1.500000 4.000000 -0.500000
v 1.500000 0.000000 -0.500002
v 1.500000 4.000000 0.500000
v 1.500000 0.000000 0.499998
v -2.500000 3.000000 0.499999
v -2.500000 8.000000 0.500000
v -2.500000 8.000000 -0.500000
v -2.500000 3.000000 -0.500001
v -1.500000 8.000000 -0.500000
v -1.500000 3.000000 -0.500001
v -1.500000 8.000000 0.500000
v -1.500000 3.000000 0.499999
v -1.000000 8.000000 0.500000
v -1.000000 10.000000 0.500002
v -1.000000 10.000000 -0.499998
v -1.000000 8.000000 -0.500000
v 1.000000 10.000000 -0.499998
v 1.000000 8.000000 -0.500000
v 1.000000 10.000000 0.500002
v 1.000000 8.000000 0.500000
v 1.499999 4.000000 -0.500000
v 1.499999 4.000000 0.500000
v -1.499999 4.000000 0.500000
v -1.499998 4.000000 -0.500000
v 1.500000 8.000000 -0.499999
v -1.499999 8.000000 -0.500000
v -1.500000 8.000000 0.500000
v 1.499997 8.000000 0.500000
v 1.500000 3.000000 0.499999
v 1.500000 8.000000 0.500000
v 1.500000 8.000000 -0.500000
v 1.500000 3.000000 -0.500001
v 2.500000 8.000000 -0.500000
v 2.500000 3.000000 -0.500001
v 2.500000 8.000000 0.500000
v 2.500000 3.000000 0.499999
vn -1.0000 0.0000 0.0000
vn 0.0000 0.0000 -1.0000
vn 1.0000 0.0000 0.0000
vn 0.0000 -0.0000 1.0000
vn 0.0000 -1.0000 0.0000
vn 0.0000 1.0000 0.0000
usemtl Material.040
s 1
f 1//1 2//1 3//1 4//1
f 4//2 3//2 5//2 6//2
f 6//3 5//3 7//3 8//3
f 8//4 7//4 2//4 1//4
f 4//5 6//5 8//5 1//5
f 5//6 3//6 2//6 7//6
f 9//1 10//1 11//1 12//1
f 12//2 11//2 13//2 14//2
f 14//3 13//3 15//3 16//3
f 16//4 15//4 10//4 9//4
f 12//5 14//5 16//5 9//5
f 13//6 11//6 10//6 15//6
f 17//1 18//1 19//1 20//1
f 20//2 19//2 21//2 22//2
f 22//3 21//3 23//3 24//3
f 24//4 23//4 18//4 17//4
f 20//5 22//5 24//5 17//5
f 21//6 19//6 18//6 23//6
f 25//5 26//5 27//5 28//5
f 29//6 30//6 31//6 32//6
f 25//3 29//3 32//3 26//3
f 26//4 32//4 31//4 27//4
f 27//1 31//1 30//1 28//1
f 29//2 25//2 28//2 30//2
f 33//1 34//1 35//1 36//1
f 36//2 35//2 37//2 38//2
f 38//3 37//3 39//3 40//3
f 40//4 39//4 34//4 33//4
f 36//5 38//5 40//5 33//5
f 37//6 35//6 34//6 39//6
