# Blender v2.78 (sub 0) OBJ File: ''
# www.blender.org
mtllib l_arm_l.mtl
o marker_arm_r.010
v 0.500000 2.500000 0.500020
v 0.500000 2.500000 0.500020
v 0.500000 2.500000 0.500020
v 0.500000 2.500000 0.500020
vn 0.0000 0.0000 1.0000
usemtl None.020
s off
f 1//1 2//1 3//1 4//1
o forearm.010
v 0.500000 0.000000 -0.500002
v 0.500000 -0.000000 0.499998
v -0.500000 -0.000000 0.499998
v -0.500000 0.000000 -0.500002
v 0.500000 4.000000 -0.499990
v -0.500000 4.000000 -0.499991
v -0.500000 4.000000 0.500009
v 0.499999 4.000000 0.500009
vn 0.0000 -1.0000 -0.0000
vn 0.0000 1.0000 0.0000
vn 1.0000 0.0000 0.0000
vn 0.0000 -0.0000 1.0000
vn -1.0000 0.0000 0.0000
vn 0.0000 0.0000 -1.0000
usemtl Material.024
s 1
f 5//2 6//2 7//2 8//2
f 9//3 10//3 11//3 12//3
f 5//4 9//4 12//4 6//4
f 6//5 12//5 11//5 7//5
f 7//6 11//6 10//6 8//6
f 9//7 5//7 8//7 10//7
