# Blender v2.78 (sub 0) OBJ File: ''
# www.blender.org
mtllib l_arm_r.mtl
o forearm.007
v 0.500000 0.000000 -0.500002
v 0.500000 -0.000000 0.499998
v -0.500000 -0.000000 0.499998
v -0.500000 0.000000 -0.500002
v 0.500000 4.000000 -0.499991
v -0.500000 4.000000 -0.499992
v -0.500000 4.000000 0.500008
v 0.499999 4.000000 0.500008
vn 0.0000 -1.0000 -0.0000
vn 0.0000 1.0000 0.0000
vn 1.0000 0.0000 0.0000
vn 0.0000 -0.0000 1.0000
vn -1.0000 0.0000 0.0000
vn 0.0000 0.0000 -1.0000
usemtl Material.015
s 1
f 1//1 2//1 3//1 4//1
f 5//2 6//2 7//2 8//2
f 1//3 5//3 8//3 2//3
f 2//4 8//4 7//4 3//4
f 3//5 7//5 6//5 4//5
f 5//6 1//6 4//6 6//6
o marker_arm_r.008
v -0.500000 2.500000 0.500000
v -0.500000 2.500000 0.500000
v -0.500000 2.500000 0.500000
v -0.500000 2.500000 0.500000
vn 0.0000 0.0000 1.0000
usemtl None.015
s off
f 9//7 10//7 11//7 12//7
