# Blender v2.78 (sub 0) OBJ File: ''
# www.blender.org
mtllib r_base.mtl
o marker.001_marker.010
v 0.000000 1.000000 0.500000
v 0.000000 1.000000 0.500000
v 0.000000 1.000000 0.500000
v 0.000000 1.000000 0.500000
vn 0.0000 0.0000 1.0000
usemtl None.024
s off
f 1//1 2//1 3//1 4//1
o base.021
v 1.499999 0.000000 -0.500003
v 1.499999 -0.000000 0.499998
v -1.499999 -0.000000 0.499998
v -1.499999 0.000000 -0.500003
v 1.500000 4.000000 -0.499997
v -1.499999 4.000000 -0.499998
v -1.500000 4.000000 0.500002
v 1.499998 4.000000 0.500002
vn 0.0000 -1.0000 -0.0000
vn -0.0000 1.0000 0.0000
vn 1.0000 -0.0000 0.0000
vn 0.0000 -0.0000 1.0000
vn -1.0000 -0.0000 -0.0000
vn 0.0000 0.0000 -1.0000
usemtl Material.064
s 1
f 5//2 6//2 7//2 8//2
f 9//3 10//3 11//3 12//3
f 5//4 9//4 12//4 6//4
f 6//5 12//5 11//5 7//5
f 7//6 11//6 10//6 8//6
f 9//7 5//7 8//7 10//7
