# Blender v2.78 (sub 0) OBJ File: ''
# www.blender.org
mtllib l_shoulder_r.mtl
o marker_shoulder_r.001
v 0.500000 5.000000 0.000000
v 0.500000 5.000000 0.000000
v 0.500000 5.000000 0.000000
v 0.500000 5.000000 0.000000
vn 0.0000 0.0000 1.0000
usemtl None.004
s off
f 1//1 2//1 3//1 4//1
o shoulder.002
v 0.500000 4.000000 -0.499996
v 0.500000 4.000000 0.500004
v -0.500000 4.000000 0.500004
v -0.500000 4.000000 -0.499996
v 0.500000 5.000000 -0.499995
v -0.500000 5.000000 -0.499996
v -0.500000 5.000000 0.500004
v 0.499999 5.000000 0.500004
vn 0.0000 -1.0000 0.0000
vn 0.0000 1.0000 0.0000
vn 1.0000 0.0000 0.0000
vn 0.0000 -0.0000 1.0000
vn -1.0000 -0.0000 0.0000
vn 0.0000 0.0000 -1.0000
usemtl Material.006
s 1
f 5//2 6//2 7//2 8//2
f 9//3 10//3 11//3 12//3
f 5//4 9//4 12//4 6//4
f 6//5 12//5 11//5 7//5
f 7//6 11//6 10//6 8//6
f 9//7 5//7 8//7 10//7
