# Blender v2.78 (sub 0) OBJ File: ''
# www.blender.org
mtllib l_sword.mtl
o sword.001
v -1.000000 0.000000 0.099999
v -1.000000 3.250000 0.100001
v -1.000000 3.250000 -0.099999
v -1.000000 0.000000 -0.100001
v 1.000000 3.250000 -0.099999
v 1.000000 0.000000 -0.100001
v 1.000000 3.250000 0.100001
v 1.000000 0.000000 0.099999
v -1.750000 3.250000 0.100001
v -1.750000 3.750000 0.100001
v -1.750000 3.750000 -0.099999
v -1.750000 3.250000 -0.099999
v 1.750000 3.750000 -0.099999
v 1.750000 3.250000 -0.099999
v 1.750000 3.750000 0.100001
v 1.750000 3.250000 0.100001
vn -1.0000 0.0000 0.0000
vn 0.0000 0.0000 -1.0000
vn 1.0000 -0.0000 0.0000
vn 0.0000 -0.0000 1.0000
vn 0.0000 -1.0000 0.0000
vn 0.0000 1.0000 0.0000
usemtl None.025
s 1
f 1//1 2//1 3//1 4//1
f 4//2 3//2 5//2 6//2
f 6//3 5//3 7//3 8//3
f 8//4 7//4 2//4 1//4
f 4//5 6//5 8//5 1//5
f 5//6 3//6 2//6 7//6
f 9//1 10//1 11//1 12//1
f 12//2 11//2 13//2 14//2
f 14//3 13//3 15//3 16//3
f 16//4 15//4 10//4 9//4
f 12//5 14//5 16//5 9//5
f 13//6 11//6 10//6 15//6
