# Blender v2.78 (sub 0) OBJ File: ''
# www.blender.org
mtllib r_arm_r2.mtl
o Cube.005
v 0.531927 1.249021 1.298138
v 0.531927 1.019141 0.989506
v 0.531927 1.249021 1.298138
v -0.491921 4.047907 -0.499995
v 0.508078 5.047906 0.500005
v 0.508079 5.047906 -0.499994
v -0.491921 2.507787 0.500002
v -0.491921 2.507787 -0.499998
v -0.491921 2.507787 -0.499998
v 0.508079 2.507787 -0.499997
v 0.508079 2.507787 0.500002
v 0.508079 2.507787 0.500002
v 0.574080 3.411730 0.500004
v -0.429473 3.499830 0.500004
v -0.423793 3.277531 0.500004
v 0.417110 1.099770 0.583320
v -0.491921 4.047907 0.500005
v -0.491921 4.047907 -0.499995
v 0.417110 1.488860 1.058757
v 1.024688 1.488860 1.058757
v 1.024688 1.099770 0.583320
v 0.508079 5.047906 -0.499994
v 0.508078 5.047906 0.500005
v 0.534688 4.778578 0.500005
v 0.534696 4.778506 -0.499994
v 0.557758 4.480953 0.500005
v 0.557776 4.480687 -0.499994
v 0.574060 4.144568 0.500005
v 0.574081 4.143963 -0.499995
v 0.580084 3.778365 0.500005
v 0.580085 3.777327 -0.499995
v 0.574061 3.411125 -0.499996
v 0.557775 3.075005 0.500003
v 0.557759 3.074741 -0.499996
v 0.534695 2.777188 0.500003
v 0.534689 2.777114 -0.499997
v 0.508079 2.507787 -0.499997
v -0.466744 3.884609 -0.499995
v -0.466738 3.884564 0.500005
v -0.444916 3.704151 -0.499995
v -0.444900 3.703992 0.500005
v -0.429492 3.500196 -0.499996
v -0.423793 3.278160 -0.499996
v -0.429473 3.055864 -0.499997
v -0.429492 3.055497 0.500003
v -0.444900 2.851702 -0.499998
v -0.444916 2.851540 0.500003
v -0.466738 2.671129 -0.499998
v -0.466744 2.671085 0.500002
v -0.491921 2.507787 0.500002
v 0.900483 1.249021 1.298138
v 0.900483 1.019141 0.989506
v 0.417110 1.099770 0.583320
v 0.417110 1.488860 1.058757
v 0.418552 1.379778 1.143945
v 0.431539 1.343002 1.178496
v 0.531927 1.019141 0.989506
v 0.503861 1.264883 1.272757
v 0.503854 1.018123 0.946426
v 0.476630 1.284691 1.244708
v 0.476608 1.019277 0.898803
v 0.451689 1.310591 1.213007
v 0.451650 1.024103 0.844958
v 0.431492 1.033582 0.786330
v 0.418536 1.047373 0.727771
v 0.413069 1.417434 1.112212
v 0.413067 1.063912 0.673980
v 0.413392 1.453853 1.084145
v 0.413392 1.081653 0.626387
v -0.491921 4.047907 0.500005
vn -0.1779 0.2384 0.9547
vn 0.0000 0.0000 1.0000
vn -0.7071 0.7071 -0.0000
vn -0.6336 -0.4057 0.6587
vn -0.6988 0.1077 0.7071
vn -0.4502 -0.2907 0.8443
vn 0.4841 0.1776 0.8568
vn 0.7037 -0.0695 0.7071
vn 0.7621 0.2771 0.5851
vn 0.0000 -0.9960 0.0895
vn 0.0000 -0.6098 -0.7926
vn 0.0000 -0.6824 -0.7310
vn -0.6989 -0.1077 0.7071
vn 0.0000 0.0000 0.0000
vn -0.6988 -0.1077 0.7071
vn -0.8165 -0.5112 0.2684
vn -0.7825 -0.4819 0.3943
vn -0.0000 0.1885 0.9821
vn 0.0000 0.4808 0.8768
vn 0.9288 0.3309 -0.1668
vn 0.9112 0.3189 -0.2610
vn 0.7037 0.0695 0.7071
vn 0.9961 0.0878 0.0000
vn 0.9980 0.0629 0.0000
vn 0.9980 0.0628 -0.0000
vn 0.9995 0.0324 0.0000
vn 1.0000 0.0000 0.0000
vn 0.9995 -0.0324 0.0000
vn 0.9980 -0.0628 0.0000
vn 0.9980 -0.0629 -0.0000
vn 0.9961 -0.0878 0.0000
vn -0.9907 -0.1362 0.0000
vn -0.9952 -0.0978 0.0000
vn -0.9952 -0.0977 -0.0000
vn -0.9987 -0.0506 0.0000
vn -0.9987 -0.0505 -0.0000
vn -1.0000 -0.0001 0.0000
vn -1.0000 0.0001 -0.0000
vn -0.9987 0.0505 0.0000
vn -0.9987 0.0506 -0.0000
vn -0.9952 0.0977 0.0000
vn -0.9952 0.0978 -0.0000
vn -0.9907 0.1362 0.0000
vn -0.9907 0.1363 -0.0000
vn 0.0000 0.0000 -1.0000
vn 0.0000 -0.8020 0.5973
vn 0.7622 0.1925 0.6181
vn 0.6625 -0.7463 0.0638
vn 0.5138 -0.8571 -0.0378
vn -0.3562 -0.4763 0.8039
vn -0.3157 0.2249 0.9218
vn -0.7286 0.3505 0.5884
vn -0.7161 0.2787 0.6399
vn 0.5618 0.4324 0.7053
vn -0.2717 -0.6158 0.7396
vn -0.5957 0.2031 0.7771
vn -0.4127 -0.8803 0.2340
vn -0.6354 0.2088 0.7434
vn -0.4742 -0.8637 0.1705
vn -0.6793 0.2357 0.6950
vn -0.5385 -0.8386 0.0825
vn -0.6064 -0.7952 -0.0052
vn -0.6659 -0.7381 -0.1086
vn -0.7256 0.4023 0.5582
vn -0.7030 -0.6796 -0.2096
vn -0.7192 0.4435 0.5348
vn -0.7194 -0.6308 -0.2910
vn 0.0000 0.1813 0.9834
usemtl Material.028
s 1
f 1//1 2//2 3//2
f 4//3 5//3 6//3
f 7//4 8//5 9//6
f 10//7 11//8 12//9
f 13//2 14//2 15//2
f 10//10 16//11 9//12
f 17//13 4//14 18//15
f 7//4 16//16 19//17
f 12//18 19//19 20//19
f 21//20 12//9 20//21
f 22//22 5//14 23//22
f 22//22 24//23 25//23
f 25//23 26//24 27//25
f 27//25 28//26 29//26
f 29//26 30//27 31//27
f 31//27 13//28 32//28
f 32//28 33//29 34//30
f 34//30 35//31 36//31
f 36//31 11//8 37//8
f 17//13 38//32 39//32
f 39//32 40//33 41//34
f 41//34 42//35 14//36
f 14//36 43//37 15//38
f 15//38 44//39 45//40
f 45//40 46//41 47//42
f 47//42 48//43 49//44
f 49//44 8//5 50//5
f 34//45 44//45 43//45
f 51//46 2//46 52//46
f 20//47 52//48 21//49
f 19//2 53//50 54//51
f 55//52 56//53 51//54
f 57//55 58//56 59//57
f 59//57 60//58 61//59
f 61//59 62//60 63//61
f 63//61 56//53 64//62
f 64//62 55//52 65//63
f 65//63 66//64 67//65
f 67//65 68//66 69//67
f 69//67 54//51 53//50
f 63//61 64//62 21//49
f 1//1 57//55 2//2
f 4//3 70//3 5//3
f 7//4 50//5 8//5
f 10//7 37//8 11//8
f 12//18 11//2 35//2
f 35//2 33//2 45//2
f 13//2 30//2 14//2
f 28//2 26//2 70//2
f 23//2 5//2 70//2
f 26//2 24//2 70//2
f 33//2 13//2 15//2
f 50//2 7//68 12//18
f 49//2 50//2 12//18
f 12//18 35//2 49//2
f 24//2 23//2 70//2
f 70//2 17//2 39//2
f 30//2 28//2 39//2
f 47//2 49//2 35//2
f 45//2 47//2 35//2
f 28//2 70//2 39//2
f 30//2 39//2 41//2
f 15//2 45//2 33//2
f 30//2 41//2 14//2
f 10//10 21//11 16//11
f 17//13 70//14 4//14
f 7//4 9//6 16//16
f 12//18 7//68 19//19
f 21//20 10//7 12//9
f 22//22 6//14 5//14
f 22//22 23//22 24//23
f 25//23 24//23 26//24
f 27//25 26//24 28//26
f 29//26 28//26 30//27
f 31//27 30//27 13//28
f 32//28 13//28 33//29
f 34//30 33//29 35//31
f 36//31 35//31 11//8
f 17//13 18//15 38//32
f 39//32 38//32 40//33
f 41//34 40//33 42//35
f 14//36 42//35 43//37
f 15//38 43//37 44//39
f 45//40 44//39 46//41
f 47//42 46//41 48//43
f 49//44 48//43 8//5
f 6//2 22//2 25//45
f 25//45 27//45 18//45
f 29//45 31//45 38//45
f 32//45 34//45 43//45
f 37//45 10//10 9//12
f 34//45 36//45 44//45
f 27//45 29//45 18//45
f 18//45 4//2 6//2
f 38//45 18//45 29//45
f 6//2 25//45 18//45
f 36//45 37//45 48//45
f 9//12 8//2 48//45
f 31//45 32//45 42//45
f 40//45 38//45 31//45
f 42//45 40//45 31//45
f 37//45 9//12 48//45
f 36//45 48//45 46//45
f 43//45 42//45 32//45
f 36//45 46//45 44//45
f 51//46 3//46 2//46
f 20//47 51//54 52//48
f 19//2 16//2 53//50
f 20//47 19//2 54//51
f 54//51 68//66 20//47
f 66//64 55//52 20//47
f 56//53 62//60 51//54
f 60//58 58//56 51//54
f 1//1 3//2 51//54
f 62//60 60//58 51//54
f 68//66 66//64 20//47
f 51//54 20//47 55//52
f 58//56 1//1 51//54
f 57//55 1//1 58//56
f 59//57 58//56 60//58
f 61//59 60//58 62//60
f 63//61 62//60 56//53
f 64//62 56//53 55//52
f 65//63 55//52 66//64
f 67//65 66//64 68//66
f 69//67 68//66 54//51
f 53//50 16//2 21//49
f 52//48 2//2 57//55
f 57//55 59//57 52//48
f 61//59 63//61 52//48
f 64//62 65//63 21//49
f 67//65 69//67 21//49
f 53//50 21//49 69//67
f 52//48 59//57 61//59
f 63//61 21//49 52//48
f 67//65 21//49 65//63
o Cylinder
v 0.690041 -0.311682 -0.869190
v 0.690041 1.292065 1.108422
v 0.717432 1.291689 1.108720
v 0.743770 1.290572 1.109602
v 0.768043 1.288759 1.111034
v 0.789319 1.286320 1.112960
v 0.806779 1.283346 1.115308
v 0.819754 1.279955 1.117987
v 0.827743 1.276274 1.120894
v 0.830441 1.272446 1.123917
v 0.827743 1.268618 1.126940
v 0.819754 1.264939 1.129846
v 0.806779 1.261546 1.132525
v 0.789319 1.258572 1.134873
v 0.768043 1.256132 1.136800
v 0.743770 1.254320 1.138232
v 0.717431 1.253204 1.139113
v 0.690041 1.252827 1.139411
v 0.662650 1.253204 1.139113
v 0.676346 0.470761 0.134963
v 0.636312 1.254320 1.138232
v 0.612039 1.256132 1.136800
v 0.590763 1.258572 1.134873
v 0.573302 1.261546 1.132525
v 0.560328 1.264939 1.129846
v 0.552339 1.268618 1.126940
v 0.549641 1.272446 1.123917
v 0.552339 1.276274 1.120894
v 0.560328 1.279955 1.117987
v 0.573303 1.283346 1.115308
v 0.590763 1.286320 1.112960
v 0.612039 1.288759 1.111033
v 0.636312 1.290572 1.109602
v 0.806779 1.479832 1.408922
v 0.789319 1.476858 1.411270
v 0.662650 1.291689 1.108720
v 0.717431 1.509973 1.385117
v 0.690041 1.510351 1.384819
v 0.662650 1.509973 1.385117
v 0.636312 1.508858 1.385999
v 0.612039 1.507045 1.387431
v 0.590763 1.504605 1.389358
v 0.573303 1.501632 1.391706
v 0.560328 1.498239 1.394384
v 0.552339 1.494560 1.397291
v 0.549641 1.490732 1.400314
v 0.552338 1.486904 1.403337
v 0.560328 1.483224 1.406243
v 0.573302 1.479832 1.408922
v 0.590763 1.476858 1.411270
v 0.612039 1.474418 1.413197
v 0.636312 1.472606 1.414629
v 0.662650 1.471489 1.415511
v 0.690041 1.471112 1.415809
v 0.717431 1.471489 1.415511
v 0.743769 1.472606 1.414629
v 0.768043 1.474418 1.413197
v 0.819753 1.483224 1.406243
v 0.827743 1.486904 1.403337
v 0.830441 1.490732 1.400314
v 0.827743 1.494560 1.397291
v 0.819753 1.498239 1.394384
v 0.806779 1.501632 1.391706
v 0.789319 1.504605 1.389358
v 0.768043 1.507045 1.387431
v 0.743770 1.508858 1.385999
vn 0.0175 0.7766 -0.6298
vn 0.0540 0.7753 -0.6293
vn 0.0947 0.7724 -0.6280
vn 0.1445 0.7668 -0.6254
vn 0.2120 0.7556 -0.6198
vn 0.3159 0.7304 -0.6056
vn 0.5060 0.6568 -0.5591
vn 0.8740 0.3486 -0.3386
vn 0.8741 -0.4084 0.2630
vn 0.5060 -0.6929 0.5137
vn 0.3161 -0.7548 0.5748
vn 0.2121 -0.7743 0.5962
vn 0.1446 -0.7823 0.6058
vn 0.0947 -0.7861 0.6107
vn 0.0539 -0.7880 0.6133
vn 0.0175 -0.7888 0.6144
vn -0.0175 -0.7888 0.6144
vn -0.0539 -0.7880 0.6133
vn -0.0947 -0.7861 0.6107
vn -0.1446 -0.7823 0.6058
vn -0.2121 -0.7743 0.5962
vn -0.3161 -0.7548 0.5748
vn -0.5059 -0.6929 0.5137
vn -0.8741 -0.4084 0.2630
vn -0.8740 0.3486 -0.3386
vn -0.5060 0.6568 -0.5591
vn -0.3159 0.7304 -0.6056
vn -0.2120 0.7556 -0.6198
vn -0.1445 0.7668 -0.6254
vn -0.0947 0.7724 -0.6280
vn 0.2121 -0.7669 0.6057
vn -0.0540 0.7753 -0.6293
vn -0.0175 0.7766 -0.6298
vn -0.0000 0.6198 0.7848
vn -0.5062 0.6768 -0.5345
vn 0.1446 -0.7765 0.6133
vn 0.0175 0.7847 -0.6197
vn -0.3160 0.7446 -0.5880
vn 0.0947 -0.7812 0.6170
vn -0.2121 0.7669 -0.6057
vn 0.0539 -0.7836 0.6189
vn 0.0539 0.7836 -0.6189
vn -0.1446 0.7765 -0.6133
vn 0.0175 -0.7847 0.6197
vn 0.0948 0.7812 -0.6170
vn -0.0947 0.7812 -0.6170
vn -0.0175 -0.7847 0.6197
vn 0.1446 0.7765 -0.6133
vn -0.0539 0.7836 -0.6189
vn -0.0539 -0.7836 0.6189
vn 0.2121 0.7669 -0.6057
vn -0.0175 0.7847 -0.6197
vn -0.0947 -0.7812 0.6170
vn 0.3160 0.7446 -0.5880
vn -0.1446 -0.7765 0.6133
vn 0.5062 0.6768 -0.5345
vn -0.2121 -0.7669 0.6057
vn 0.8751 0.3798 -0.3000
vn -0.3161 -0.7445 0.5880
vn 0.8751 -0.3798 0.3000
vn -0.5061 -0.6768 0.5345
vn 0.5061 -0.6768 0.5345
vn -0.8751 -0.3798 0.2999
vn 0.3161 -0.7445 0.5880
vn -0.8751 0.3798 -0.3000
usemtl None.031
s off
f 71//69 72//69 73//69
f 71//70 73//70 74//70
f 71//71 74//71 75//71
f 71//72 75//72 76//72
f 71//73 76//73 77//73
f 71//74 77//74 78//74
f 71//75 78//75 79//75
f 71//76 79//76 80//76
f 71//77 80//77 81//77
f 71//78 81//78 82//78
f 71//79 82//79 83//79
f 71//80 83//80 84//80
f 71//81 84//81 85//81
f 71//82 85//82 86//82
f 71//83 86//83 87//83
f 71//84 87//84 88//84
f 71//85 88//85 89//85 90//85
f 71//86 90//86 89//86 91//86
f 71//87 91//87 92//87
f 71//88 92//88 93//88
f 71//89 93//89 94//89
f 71//90 94//90 95//90
f 71//91 95//91 96//91
f 71//92 96//92 97//92
f 71//93 97//93 98//93
f 71//94 98//94 99//94
f 71//95 99//95 100//95
f 71//96 100//96 101//96
f 71//97 101//97 102//97
f 71//98 102//98 103//98
f 84//99 83//99 104//99 105//99
f 71//100 103//100 106//100
f 71//101 106//101 72//101
f 107//102 108//102 109//102 110//102 111//102 112//102 113//102 114//102 115//102 116//102 117//102 118//102 119//102 120//102 121//102 122//102 123//102 124//102 125//102 126//102 127//102 105//102 104//102 128//102 129//102 130//102 131//102 132//102 133//102 134//102 135//102 136//102
f 99//103 98//103 115//103 114//103
f 85//104 84//104 105//104 127//104
f 73//105 72//105 108//105 107//105
f 100//106 99//106 114//106 113//106
f 86//107 85//107 127//107 126//107
f 101//108 100//108 113//108 112//108
f 87//109 86//109 126//109 125//109
f 74//110 73//110 107//110 136//110
f 102//111 101//111 112//111 111//111
f 88//112 87//112 125//112 124//112
f 75//113 74//113 136//113 135//113
f 103//114 102//114 111//114 110//114
f 89//115 88//115 124//115 123//115
f 76//116 75//116 135//116 134//116
f 106//117 103//117 110//117 109//117
f 91//118 89//118 123//118 122//118
f 77//119 76//119 134//119 133//119
f 72//120 106//120 109//120 108//120
f 92//121 91//121 122//121 121//121
f 78//122 77//122 133//122 132//122
f 93//123 92//123 121//123 120//123
f 79//124 78//124 132//124 131//124
f 94//125 93//125 120//125 119//125
f 80//126 79//126 131//126 130//126
f 95//127 94//127 119//127 118//127
f 81//128 80//128 130//128 129//128
f 96//129 95//129 118//129 117//129
f 82//130 81//130 129//130 128//130
f 97//131 96//131 117//131 116//131
f 83//132 82//132 128//132 104//132
f 98//133 97//133 116//133 115//133
