# Blender v2.78 (sub 0) OBJ File: ''
# www.blender.org
mtllib r_base_legs.mtl
o marker.001_marker.012
v 0.000000 1.000000 0.500000
v 0.000000 1.000000 0.500000
v 0.000000 1.000000 0.500000
v 0.000000 1.000000 0.500000
vn 0.0000 0.0000 1.0000
usemtl None.027
s off
f 1//1 2//1 3//1 4//1
o base.003_base.001
v -0.328733 -0.802413 0.505000
v -1.040126 -0.802413 -0.505000
v -0.328733 -0.802413 -0.505000
v -1.084539 2.797587 -0.474644
v -0.211671 2.797587 0.466216
v -0.211669 2.797587 -0.474642
v -0.143962 1.476749 0.505002
v -0.143961 1.476749 -0.504998
v -1.039299 1.476749 0.505002
v -1.039299 1.476749 -0.504998
v -1.127236 1.082707 0.505001
v -1.127236 1.082707 -0.504999
v -0.246409 1.082707 0.505001
v -0.246408 1.082707 -0.504999
v -1.040126 -0.802413 0.505000
v -1.084540 2.797587 0.466216
v -0.143961 1.476749 -0.515098
v -0.211669 2.797587 -0.484874
v -0.246408 1.082707 -0.515099
v -1.127236 1.082707 -0.515099
v -1.040126 -0.802413 -0.515100
v -1.039299 1.476749 -0.515098
v -0.328733 -0.802413 -0.515100
v -1.084539 2.797587 -0.484876
v 0.501704 1.082707 0.455271
v 1.141975 1.476749 0.138475
v 0.412982 1.476749 0.510241
v 0.572999 -0.802413 0.411098
v 1.142691 -0.802413 0.138030
v 1.181157 2.797587 0.114203
v 0.471621 2.797587 0.473914
v 1.218132 1.082707 0.091290
v 0.254824 1.082707 -0.167180
v 0.814892 1.476749 -0.367568
v 0.166102 1.476749 -0.112209
v 0.326120 -0.802413 -0.211354
v 0.815607 -0.802413 -0.368014
v 0.854072 2.797587 -0.391840
v 0.224741 2.797587 -0.148536
v 0.891047 1.082707 -0.414753
v 0.251852 1.082991 -0.176767
v 0.162860 1.476939 -0.121693
v 0.811691 1.476924 -0.377068
v 0.812655 -0.802402 -0.377609
v 0.323430 -0.802305 -0.221032
v 0.221525 2.797508 -0.158028
v 0.850882 2.797523 -0.401341
v 0.887838 1.082871 -0.424250
v 0.157379 1.475669 -0.108224
v 0.404259 1.475669 0.514226
v 0.462974 2.798127 0.477864
v 0.246217 1.081136 -0.163249
v 0.493097 1.081135 0.459202
v 0.317469 -0.802873 -0.207403
v 0.564348 -0.802873 0.415049
v 0.216093 2.798127 -0.144586
v 1.149742 1.477735 0.132695
v 0.822658 1.477735 -0.373348
v 0.861800 2.797225 -0.397592
v 1.225909 1.083631 0.085501
v 0.898825 1.083631 -0.420543
v 1.150415 -0.802902 0.132280
v 0.823331 -0.802902 -0.373764
v 1.188885 2.797225 0.108451
v -1.409378 3.997588 0.505009
v -1.409715 3.803899 0.505009
v -1.409378 3.997588 -0.504991
v -1.409378 3.997588 -0.504991
v -1.409378 3.997588 0.505009
v -1.412790 3.597693 0.505007
v -1.409716 3.803801 -0.504992
v -1.422875 3.363514 -0.504993
v -1.412793 3.597546 -0.504993
v -1.444821 3.097824 -0.504995
v -1.422899 3.363145 0.505007
v -1.478439 2.832030 -0.504996
v -1.444871 3.097351 0.505003
v -1.517386 2.597482 -0.504998
v -1.478494 2.831661 0.505003
v -1.517360 2.597629 0.505002
v -1.557419 2.391374 0.505002
v -1.597612 2.197587 -0.505000
v -1.557439 2.391276 -0.504998
v 1.414465 3.803957 0.505009
v 1.414469 3.803639 -0.504991
v 1.414153 3.997588 -0.504990
v -1.597612 2.197587 0.505000
v -1.597612 2.197587 -0.505000
v -1.597612 2.197587 0.505000
v 1.602388 2.197587 -0.505000
v 1.414151 3.997588 0.505009
v 1.414153 3.997588 -0.504990
v 1.414151 3.997588 0.505009
v 1.417423 3.597846 0.505008
v 1.427337 3.363748 0.505007
v 1.417434 3.597488 -0.504991
v 1.521988 2.597687 0.505003
v 1.522054 2.597329 -0.504997
v 1.483006 2.831426 -0.504996
v 1.449237 3.097633 -0.504993
v 1.427334 3.363840 -0.504992
v 1.449245 3.097542 0.505005
v 1.483019 2.831335 0.505005
v 1.562137 2.391536 0.505002
v 1.602388 2.197587 0.505000
v 1.602388 2.197587 -0.505000
v 1.562203 2.391217 -0.504998
v 1.602388 2.197587 0.505000
v -1.409696 3.803988 0.505009
v -1.419127 3.803890 -0.504992
v -1.422198 3.598001 0.505007
v -1.432268 3.364180 -0.504993
v -1.422202 3.597854 -0.504993
v -1.409359 3.997607 -0.504991
v -1.454177 3.098928 -0.504995
v -1.432292 3.363811 0.505006
v -1.487742 2.833565 -0.504995
v -1.454227 3.098455 0.505003
v -1.526631 2.599362 -0.504998
v -1.487796 2.833197 0.505003
v -1.526605 2.599509 0.505002
v -1.566637 2.393395 0.505002
v -1.566657 2.393297 -0.504998
vn 0.0000 -1.0000 -0.0000
vn 0.0000 1.0000 0.0000
vn 0.9987 0.0512 0.0000
vn 0.9952 -0.0982 0.0004
vn 0.9947 -0.1025 0.0000
vn -0.9956 0.0937 -0.0000
vn -0.9994 -0.0342 -0.0000
vn -0.9956 0.0935 0.0000
vn -0.9962 0.0866 0.0000
vn 0.9889 -0.1485 0.0000
vn 0.9884 -0.1521 0.0000
vn 0.9990 -0.0436 0.0000
vn -0.9989 -0.0462 -0.0000
vn 0.9939 -0.1105 0.0012
vn 0.6837 0.7298 0.0000
vn 0.9950 -0.1003 0.0000
vn 0.6937 0.7202 0.0000
vn 0.9869 -0.1482 -0.0635
vn 0.9869 -0.1481 0.0635
vn -0.6906 -0.7232 0.0000
vn -0.9958 0.0916 0.0000
vn 0.6915 -0.7224 0.0000
vn -0.7138 0.7004 0.0000
vn -0.7243 0.6895 0.0000
vn 1.0000 -0.0017 0.0000
vn 0.0000 0.0000 0.0000
vn 0.9999 -0.0135 0.0000
vn 0.9996 -0.0290 0.0000
vn 1.0000 -0.0083 -0.0000
vn 0.9980 -0.0627 -0.0000
vn 0.9946 -0.1039 -0.0000
vn 0.9895 -0.1447 -0.0000
vn 0.9946 -0.1040 0.0000
vn 0.9842 -0.1773 -0.0000
vn 0.9817 -0.1907 0.0000
vn 0.9792 -0.2031 0.0000
vn 0.9999 0.0130 0.0000
vn 1.0000 0.0080 0.0000
vn 1.0000 0.0016 0.0000
vn 0.9999 0.0132 -0.0000
vn 0.9996 0.0283 -0.0000
vn 0.9981 0.0622 -0.0000
vn 0.9996 0.0284 0.0000
vn 0.9841 0.1779 -0.0000
vn 0.9894 0.1452 0.0000
vn 0.9946 0.1039 0.0000
vn 0.9946 0.1040 -0.0000
vn 0.9816 0.1912 -0.0000
vn 0.9791 0.2032 -0.0000
vn 0.0000 0.0000 1.0000
vn 0.0000 0.0001 1.0000
vn 0.0000 0.0000 -1.0000
vn -0.1209 0.0002 0.9927
vn -1.0000 0.0017 0.0000
vn -0.9792 0.2031 -0.0000
vn 0.0004 0.0053 -1.0000
vn 0.0003 0.0046 -1.0000
vn -0.9982 0.0595 0.0093
vn -0.9994 0.0356 0.0053
vn -0.9988 0.0489 0.0041
vn -0.9980 0.0627 0.0000
vn -0.9996 0.0290 -0.0000
vn -0.9987 0.0504 0.0093
vn -0.9946 0.1039 0.0000
vn -0.9895 0.1447 0.0000
vn -0.9946 0.1040 -0.0000
vn -0.9842 0.1773 0.0000
vn -0.9817 0.1907 -0.0000
vn -0.0001 -0.0000 1.0000
vn 0.4107 -0.1459 0.9000
vn 0.9422 -0.3344 0.0227
vn -0.1526 -0.6960 -0.7016
vn -0.1503 -0.6855 -0.7124
vn -0.1526 -0.6960 0.7017
vn -0.1503 -0.6854 0.7125
vn 0.5363 -0.1928 -0.8217
vn 0.8158 -0.2880 -0.5016
vn 0.0000 0.0294 0.9996
vn 0.0000 0.0139 0.9999
vn 0.4515 -0.0106 0.8922
vn 0.4534 -0.0087 0.8913
vn 0.4543 -0.0079 0.8908
vn 0.0000 0.0157 0.9999
vn 0.4322 -0.0048 0.9017
vn 0.4375 -0.0026 0.8992
vn 0.4522 0.0030 0.8919
vn 0.4529 0.0035 0.8915
vn 0.4529 -0.0069 0.8915
vn -0.0000 -0.0230 0.9997
vn -0.0000 -0.0109 0.9999
vn 0.3594 -0.0223 0.9329
vn 0.3641 -0.0189 0.9312
vn 0.3662 -0.0170 0.9304
vn 0.0000 -0.0123 0.9999
vn 0.3048 -0.0108 0.9524
vn 0.3175 -0.0066 0.9482
vn 0.3606 0.0064 0.9327
vn 0.3623 0.0073 0.9320
vn 0.3626 -0.0149 0.9318
vn 0.9246 0.1034 -0.3667
vn 0.9283 -0.0513 -0.3682
vn 0.9249 0.0999 -0.3668
vn -0.8361 -0.0943 0.5404
vn -0.8393 0.0349 0.5425
vn -0.8361 -0.0940 0.5404
vn -0.8366 -0.0883 0.5407
vn -0.8366 -0.0880 0.5407
vn 0.9190 0.1506 -0.3645
vn 0.9190 0.1503 -0.3644
vn 0.9287 0.0438 -0.3683
vn -0.8389 0.0470 0.5422
vn 0.0000 0.0229 -0.9997
vn 0.0000 0.0108 -0.9999
vn 0.0000 0.0123 -0.9999
vn -0.3594 0.0224 -0.9329
vn -0.3662 0.0170 -0.9304
vn -0.3641 0.0189 -0.9312
vn -0.3175 0.0066 -0.9482
vn -0.3048 0.0108 -0.9524
vn -0.3623 -0.0073 -0.9320
vn -0.3606 -0.0064 -0.9327
vn -0.3626 0.0149 -0.9318
vn -0.9255 -0.1807 0.3329
vn -0.9449 -0.0999 0.3118
vn -0.9448 -0.1007 0.3118
vn -0.9630 -0.1115 0.2454
vn -0.6634 0.7149 0.2208
vn -0.6443 0.7342 0.2142
vn 0.6703 0.7051 -0.2311
vn 0.9443 0.0914 -0.3163
vn 0.9442 0.0921 -0.3162
vn 0.6892 0.6846 -0.2373
vn 0.9466 0.0862 -0.3106
vn 0.9467 0.0856 -0.3106
vn 0.6509 -0.7281 -0.2147
vn 0.6611 -0.7179 -0.2179
vn -0.6736 -0.7134 0.1932
vn -0.6566 -0.7304 0.1881
vn -0.9246 -0.1034 0.3667
vn -0.9249 -0.0999 0.3668
vn -0.9283 0.0513 0.3682
vn -0.9206 -0.1481 0.3613
vn -0.9190 -0.1506 0.3645
vn -0.9403 0.0598 0.3350
vn -0.9287 -0.0438 0.3683
vn -0.2635 0.6917 -0.6724
vn -0.4174 0.0127 -0.9086
vn -0.4174 0.0129 -0.9086
vn -0.2517 0.7170 -0.6500
vn 0.4160 -0.0056 0.9094
vn 0.4177 -0.0190 0.9084
vn 0.4177 -0.0187 0.9084
vn 0.4174 -0.0127 0.9086
vn 0.3258 0.7172 0.6160
vn 0.3332 0.6968 0.6351
vn 0.4174 -0.0129 0.9086
vn -0.4276 0.0651 -0.9016
vn -0.2692 -0.6924 -0.6694
vn -0.2577 -0.7174 -0.6473
vn -0.4699 -0.0055 -0.8827
vn 0.0450 -0.9988 -0.0178
vn -0.3657 0.0518 -0.9293
vn -0.4033 -0.0264 -0.9147
vn 0.8361 0.0943 -0.5404
vn 0.8361 0.0940 -0.5404
vn 0.8393 -0.0349 -0.5425
vn 0.8366 0.0880 -0.5407
vn 0.8366 0.0883 -0.5407
vn 0.8389 -0.0470 -0.5422
vn 0.4528 0.6899 0.5647
vn 0.5963 0.0080 0.8027
vn 0.5963 0.0079 0.8027
vn 0.4367 0.7185 0.5413
vn -0.5963 -0.0080 -0.8027
vn -0.3902 0.7235 -0.5695
vn -0.4096 0.6926 -0.5937
vn -0.5964 -0.0079 -0.8027
vn -0.5964 -0.0074 -0.8027
vn -0.5964 -0.0075 -0.8027
vn 0.5964 0.0074 0.8027
vn 0.5964 0.0075 0.8027
vn -0.4449 -0.7172 -0.5364
vn -0.4605 -0.6891 -0.5596
vn 0.4021 -0.6927 0.5988
vn 0.3820 -0.7240 0.5744
usemtl Material.069
s 1
f 5//2 6//2 7//2
f 8//3 9//3 10//3
f 10//4 11//5 12//6
f 13//7 8//8 14//9
f 15//10 14//9 16//10
f 12//6 17//11 18//12
f 18//12 5//13 7//13
f 19//14 16//10 6//14
f 5//2 19//2 6//2
f 8//3 20//3 9//3
f 10//4 9//4 11//15
f 13//7 20//8 8//8
f 15//10 13//7 14//9
f 12//6 11//5 17//11
f 18//12 17//11 5//13
f 19//14 15//10 16//10
f 10//16 12//17 21//6 22//18
f 12//17 18//19 23//20 21//6
f 6//21 16//10 24//10 25//21
f 16//10 14//22 26//9 24//10
f 7//23 6//21 25//21 27//23
f 18//19 7//23 27//23 23//20
f 14//22 8//24 28//25 26//9
f 8//24 10//16 22//18 28//25
usemtl Material.070
f 69//26 70//26 71//26
f 69//27 72//27 73//27
f 70//28 74//29 75//30
f 76//31 77//29 74//29
f 70//28 75//30 71//26
f 78//32 76//31 79//31
f 79//31 76//31 74//29
f 80//33 78//32 81//34
f 81//34 78//32 79//31
f 82//35 80//33 83//33
f 83//33 80//33 81//34
f 84//35 85//36 82//35
f 84//35 82//35 83//33
f 86//37 87//37 85//37
f 88//38 89//39 90//40
f 91//27 92//27 93//27
f 93//27 86//27 92//27
f 93//2 92//2 94//2
f 95//40 88//40 90//40
f 95//27 96//27 97//27
f 97//27 90//27 96//27
f 88//41 98//42 89//39
f 74//29 77//29 75//30
f 98//42 99//43 100//44
f 101//45 102//45 103//46
f 104//47 105//43 99//43
f 85//36 87//36 82//35
f 103//46 104//47 106//48
f 106//48 104//47 99//43
f 107//46 101//45 103//46
f 107//46 103//46 106//48
f 101//45 108//49 102//45
f 109//50 110//50 111//50
f 108//50 109//50 111//50
f 98//42 100//44 89//39
f 93//2 94//2 109//2
f 109//27 94//27 110//27
f 112//27 110//27 109//27
f 99//43 105//43 100//44
f 70//51 73//51 69//51
f 88//51 97//51 95//51
f 112//51 108//51 109//51
f 108//49 111//49 102//45
f 109//2 92//2 94//2
f 72//3 95//3 96//3
f 94//27 112//27 109//27
f 70//51 98//51 88//51
f 90//27 95//27 97//27
f 111//50 112//50 110//50
f 91//27 86//27 92//27
f 110//52 94//51 87//53
f 71//54 70//55 73//55
f 87//56 93//56 85//56
f 73//27 72//27 71//27
f 109//2 91//2 92//2
f 72//3 69//3 95//3
f 94//27 110//27 112//27
f 91//51 109//51 112//51
f 91//51 112//51 108//51
f 85//51 93//51 91//51
f 91//51 108//51 85//51
f 108//51 101//51 85//51
f 85//51 101//51 84//51
f 101//51 107//51 84//51
f 84//51 107//51 83//51
f 107//51 106//51 83//51
f 83//51 106//51 81//51
f 106//51 79//51 81//51
f 106//51 99//51 79//51
f 99//51 74//51 79//51
f 99//51 98//51 74//51
f 95//51 69//51 73//51
f 95//51 73//51 70//51
f 98//51 70//51 74//51
f 95//51 70//51 88//51
f 90//27 96//27 95//27
f 90//40 97//40 88//40
f 111//50 108//50 112//50
f 91//27 93//27 86//27
f 96//57 90//51 89//53
f 71//53 72//51 96//57
f 75//53 71//58 89//53
f 71//53 96//57 89//53
f 77//53 75//53 100//53
f 75//53 89//53 100//53
f 76//53 77//53 105//53
f 77//53 100//53 105//53
f 78//53 76//53 104//53
f 76//53 105//53 104//53
f 80//53 78//53 104//53
f 80//53 104//53 103//53
f 82//53 80//53 103//53
f 82//53 103//53 102//53
f 92//52 86//51 87//53
f 87//53 82//53 102//53
f 87//53 102//53 111//53
f 94//51 92//52 87//53
f 87//53 111//53 110//52
f 87//56 86//56 93//56
f 113//59 114//60 115//61
f 116//62 115//61 117//63
f 113//59 118//64 114//60
f 119//65 120//62 116//62
f 120//62 115//61 116//62
f 121//66 122//67 119//65
f 122//67 120//62 119//65
f 123//68 124//66 121//66
f 124//66 122//67 121//66
f 125//68 123//68 126//69
f 125//68 124//66 123//68
f 115//61 114//60 117//63
f 126//69 123//68 127//69
f 83//51 81//51 122//51 124//51
f 77//53 76//53 116//53 117//53
f 81//51 79//70 120//70 122//51
f 76//53 78//53 119//53 116//53
f 84//51 83//51 124//51 125//51
f 74//51 70//71 113//72 115//51
f 82//53 87//73 127//74 123//53
f 85//75 84//51 125//51 126//76
f 79//70 74//51 115//51 120//70
f 71//77 75//53 114//53 118//78
f 87//73 85//75 126//76 127//74
f 80//53 82//53 123//53 121//53
f 78//53 80//53 121//53 119//53
f 75//53 77//53 117//53 114//53
f 70//71 71//77 118//78 113//72
usemtl Material.071
f 5//51 17//51 19//51
f 9//79 20//79 13//80
f 29//81 30//82 31//83
f 13//80 15//51 17//51
f 13//80 17//51 11//84
f 9//79 13//80 11//84
f 17//51 15//51 19//51
f 29//81 32//85 33//86
f 7//51 18//51 6//51
f 30//82 34//87 35//88
f 36//89 29//81 33//86
f 36//89 30//82 29//81
f 30//82 35//88 31//83
f 10//90 8//90 14//91
f 37//92 38//93 39//94
f 14//91 16//51 18//51
f 14//91 18//51 12//95
f 10//90 14//91 12//95
f 18//51 16//51 6//51
f 37//92 40//96 41//97
f 38//93 42//98 43//99
f 44//100 37//92 41//97
f 44//100 38//93 37//92
f 38//93 43//99 39//94
f 32//3 41//3 40//3
f 42//2 35//2 43//2
f 39//101 35//102 31//103
f 30//104 42//105 38//106
f 30//104 44//107 36//108
f 39//101 29//109 37//110
f 37//110 32//111 40//111
f 33//112 44//107 41//112
f 32//3 33//3 41//3
f 42//2 34//2 35//2
f 39//101 43//102 35//102
f 30//104 34//105 42//105
f 30//104 38//106 44//107
f 39//101 31//103 29//109
f 37//110 29//109 32//111
f 33//112 36//108 44//107
f 27//53 25//53 23//53
f 22//113 26//114 28//113
f 26//114 23//53 24//53
f 26//114 21//115 23//53
f 22//113 21//115 26//114
f 23//53 25//53 24//53
f 45//116 46//117 47//118
f 45//116 48//119 49//120
f 47//118 50//121 51//122
f 52//123 48//119 45//116
f 52//123 45//116 47//118
f 47//118 46//117 50//121
f 37//124 39//125 46//126 45//127
f 39//125 43//128 50//129 46//126
f 42//130 38//131 47//132 51//133
f 38//131 44//134 52//135 47//132
f 44//134 41//136 48//137 52//135
f 41//136 40//138 49//139 48//137
f 40//138 37//124 45//127 49//139
f 43//128 42//130 51//133 50//129
f 53//140 54//141 55//142
f 53//140 56//143 57//144
f 56//145 58//146 59//146
f 53//140 55//142 60//142
f 53//140 57//144 54//141
f 56//143 59//146 57//144
f 43//147 39//148 53//149 60//150
f 32//151 29//152 57//153 59//151
f 31//154 35//155 55//156 54//157
f 29//152 31//154 54//157 57//153
f 35//155 43//147 60//150 55//156
f 37//158 40//159 58//160 56//161
f 40//159 32//162 59//162 58//160
f 39//148 37//163 56//164 53//149
f 61//165 62//166 63//167
f 61//165 64//168 65//169
f 66//170 67//170 65//169
f 61//165 63//167 68//167
f 61//165 65//169 62//166
f 66//170 65//169 64//168
f 34//171 30//172 61//173 68//174
f 38//175 42//176 63//177 62//178
f 44//179 38//175 62//178 65//180
f 30//172 36//181 64//182 61//173
f 41//183 44//179 65//180 67//184
f 36//181 33//185 66//186 64//182
f 42//176 34//171 68//174 63//177
f 33//185 41//183 67//184 66//186
