# Blender v2.78 (sub 0) OBJ File: ''
# www.blender.org
mtllib r_base_sword.mtl
o Cube.001
v 2.250000 0.000000 -0.500000
v 2.250000 0.000000 0.500000
v -2.250000 0.000000 0.500000
v -2.250000 0.000000 -0.500000
v 1.338137 4.000000 -0.499994
v -1.282783 4.000000 -0.499995
v -1.282784 4.000000 0.500005
v 1.338135 4.000000 0.500005
v -2.250000 0.000000 -0.500000
v -2.250000 0.000000 0.500000
v 2.250000 0.000000 -0.500000
v 2.250000 0.000000 0.500000
v 1.335861 4.000001 -0.499994
v 1.335859 4.000000 0.500005
v -1.286992 4.000000 0.500005
v -1.286991 4.000000 -0.499995
v -1.438343 3.604600 -0.499995
v -1.438304 3.605859 0.500005
v -1.512555 3.147646 -0.499995
v -1.512407 3.149098 0.500003
v -1.574393 2.662114 -0.500000
v -1.574195 2.663447 0.500000
v -1.659969 2.155631 -0.500000
v -1.659497 2.158153 0.500000
v -1.767141 1.634397 -0.500000
v -1.766825 1.635816 0.500000
v -1.896739 1.099324 -0.500000
v -1.896305 1.100985 0.500000
v -2.052265 0.552945 -0.500000
v -2.051772 0.554534 0.500000
v 1.446874 3.604600 0.500005
v 1.446821 3.605860 -0.499995
v 1.522975 3.147646 0.500003
v 1.522819 3.149099 -0.499995
v 1.586879 2.662115 0.500000
v 1.586678 2.663448 -0.499999
v 1.673120 2.155631 0.500000
v 1.672648 2.158154 -0.499999
v 1.779624 1.634397 0.500000
v 1.779311 1.635817 -0.499999
v 1.907151 1.099325 0.500000
v 1.906726 1.100986 -0.500000
v 2.058921 0.552945 0.500000
v 2.058442 0.554534 -0.500000
vn 0.0000 -1.0000 0.0000
vn 0.0000 1.0000 0.0000
vn 0.0000 0.0000 1.0000
vn -0.1560 0.0637 0.9857
vn 0.0000 0.0000 0.0000
vn 0.6245 -0.7779 -0.0700
vn 0.4471 -0.8945 0.0000
vn -0.0002 -1.0000 -0.0000
vn -0.0306 -0.9407 0.3377
vn -0.9294 -0.3691 -0.0002
vn -0.3064 0.6094 -0.7312
vn -0.9337 0.3579 -0.0002
vn -0.9871 0.1602 -0.0001
vn -0.9920 0.1263 -0.0000
vn -0.9860 0.1665 0.0000
vn -0.9795 0.2013 -0.0000
vn -0.9719 0.2353 0.0000
vn -0.9618 0.2737 0.0000
vn -0.9416 0.3367 -0.0000
vn 0.4589 0.8885 0.0000
vn 0.0128 0.9932 -0.1153
vn -0.3535 -0.9239 -0.1464
vn -0.1464 -0.9239 0.3535
vn 0.3535 -0.9239 0.1464
vn 0.1464 -0.9239 -0.3535
vn 0.7297 0.2778 0.6248
vn 0.8142 0.5798 0.0306
vn 0.9627 0.2707 0.0001
vn 0.9864 0.1642 0.0001
vn 0.9915 0.1304 0.0000
vn 0.9858 0.1678 -0.0000
vn 0.9798 0.2001 0.0000
vn 0.9728 0.2318 -0.0000
vn 0.9635 0.2676 -0.0000
vn 0.9452 0.3266 0.0000
vn 0.5254 0.8509 -0.0000
vn 0.6047 0.0089 -0.7964
vn 0.0000 0.0000 -1.0000
vn 0.2491 0.0000 -0.9685
vn 0.2470 0.0318 -0.9685
vn 0.2408 0.0638 -0.9685
vn 0.2308 0.0937 -0.9685
vn 0.2182 0.1201 -0.9685
vn 0.2046 0.1420 -0.9685
vn 0.1912 0.1596 -0.9685
vn 0.1783 0.1740 -0.9685
vn 0.8660 0.0000 -0.5000
vn -0.1641 -0.4287 0.8884
vn 0.1544 0.0672 -0.9857
vn 0.1663 0.1854 0.9685
usemtl Material.069
s 1
f 1//1 2//1 3//1 4//1
f 5//2 6//2 7//2 8//2
f 5//3 4//3 9//4
f 3//5 10//5 9//5 4//5
f 1//5 11//5 12//5 2//5
f 3//3 2//3 12//3
f 13//6 5//7 8//8 14//9
f 15//10 16//11 17//12 18//12
f 18//13 17//13 19//13 20//13
f 20//14 19//14 21//14 22//14
f 22//15 21//15 23//15 24//15
f 24//16 23//16 25//16 26//16
f 26//17 25//17 27//17 28//17
f 28//18 27//18 29//18 30//18
f 30//19 29//19 9//20 10//21
f 15//22 7//23 6//24 16//25
f 13//26 14//27 31//28 32//28
f 32//29 31//29 33//29 34//29
f 34//30 33//30 35//30 36//30
f 36//31 35//31 37//31 38//31
f 38//32 37//32 39//32 40//32
f 40//33 39//33 41//33 42//33
f 42//34 41//34 43//34 44//34
f 44//35 43//35 12//36 11//37
f 18//3 20//3 31//3
f 3//3 12//3 30//3
f 30//3 10//3 3//3
f 12//3 43//3 30//3
f 43//3 28//3 30//3
f 43//3 41//3 28//3
f 41//3 26//3 28//3
f 41//3 39//3 26//3
f 39//3 37//3 26//3
f 26//3 37//3 24//3
f 37//3 35//3 24//3
f 24//3 35//3 22//3
f 31//3 14//38 8//5
f 35//3 33//3 22//3
f 22//3 33//3 20//3
f 8//5 7//3 15//3
f 8//5 15//3 18//3
f 33//3 31//3 20//3
f 8//5 18//3 31//3
f 44//3 11//38 1//38
f 44//38 1//3 4//39
f 42//38 44//38 4//40
f 40//38 42//38 4//41
f 38//38 40//38 4//42
f 36//38 38//38 4//43
f 34//38 36//38 4//44
f 32//38 34//38 4//45
f 13//38 32//38 4//46
f 16//2 6//47 5//1
f 17//38 16//48 5//38
f 19//38 17//38 5//38
f 21//38 19//38 5//38
f 23//38 21//38 5//38
f 25//38 23//38 5//38
f 27//38 25//38 5//38
f 29//38 27//38 5//38
f 9//49 29//38 5//38
f 5//3 13//3 4//50
o sword.000
v -1.000000 0.000000 0.700000
v -1.000000 3.250000 0.700003
v -1.000000 3.250000 0.500003
v -1.000000 0.000000 0.500000
v 1.000000 3.250000 0.500003
v 1.000000 0.000000 0.500000
v 1.000000 3.250000 0.700003
v 1.000000 0.000000 0.700000
v -1.750000 3.250000 0.700003
v -1.750000 3.750000 0.700003
v -1.750000 3.750000 0.500003
v -1.750000 3.250000 0.500003
v 1.750000 3.750000 0.500003
v 1.750000 3.250000 0.500003
v 1.750000 3.750000 0.700003
v 1.750000 3.250000 0.700003
vn -1.0000 0.0000 0.0000
vn 0.0000 0.0000 -1.0000
vn 1.0000 0.0000 0.0000
vn 0.0000 -0.0000 1.0000
vn 0.0000 -1.0000 0.0000
vn 0.0000 1.0000 0.0000
usemtl None.027
s 1
f 45//51 46//51 47//51 48//51
f 48//52 47//52 49//52 50//52
f 50//53 49//53 51//53 52//53
f 52//54 51//54 46//54 45//54
f 48//55 50//55 52//55 45//55
f 49//56 47//56 46//56 51//56
f 53//51 54//51 55//51 56//51
f 56//52 55//52 57//52 58//52
f 58//53 57//53 59//53 60//53
f 60//54 59//54 54//54 53//54
f 56//55 58//55 60//55 53//55
f 57//56 55//56 54//56 59//56
