# Blender v2.78 (sub 0) OBJ File: ''
# www.blender.org
mtllib r_base_u.mtl
o Cube.001_Cube.003
v -1.500000 0.000000 -0.500000
v -1.500000 0.000000 0.500000
v -1.500000 4.000000 -0.500000
v -1.500000 4.000000 0.500000
v 1.500000 0.000000 -0.500000
v 1.500000 0.000000 0.500000
v 1.500000 4.000000 -0.500000
v 1.500000 4.000000 0.500000
v -1.500000 2.000000 -0.500000
v -1.500000 2.000000 0.500000
v 1.500000 2.000000 -0.500000
v 1.500000 2.000000 0.500000
v -1.500000 3.000000 0.500000
v 1.500000 3.000000 -0.500000
v -1.500000 3.000000 -0.500000
v 1.500000 3.000000 0.500000
v -1.500000 1.000000 -0.500000
v 1.500000 1.000000 0.500000
v -1.500000 1.000000 0.500000
v 1.500000 1.000000 -0.500000
v -1.500000 2.500000 -0.500000
v 1.500000 2.500000 0.500000
v -1.500000 2.500000 0.500000
v 1.500000 2.500000 -0.500000
v -1.500000 1.500000 0.500000
v 1.500000 1.500000 -0.500000
v -1.500000 1.500000 -0.500000
v 1.500000 1.500000 0.500000
v -1.500000 0.500000 -0.500000
v 1.500000 0.500000 0.500000
v -1.500000 0.500000 0.500000
v 1.500000 0.500000 -0.500000
v -1.500000 3.500000 0.500000
v 1.500000 3.500000 -0.500000
v -1.500000 3.500000 -0.500000
v 1.500000 3.500000 0.500000
v -1.500000 0.250000 -0.500000
v 1.500000 0.250000 0.500000
v -1.500000 0.250000 0.500000
v 1.500000 0.250000 -0.500000
v -1.500000 0.750000 0.500000
v 1.500000 0.750000 -0.500000
v -1.500000 0.750000 -0.500000
v 1.500000 0.750000 0.500000
v -1.500000 1.250000 -0.500000
v 1.500000 1.250000 0.500000
v -1.500000 1.250000 0.500000
v 1.500000 1.250000 -0.500000
v -1.500000 1.750000 0.500000
v 1.500000 1.750000 -0.500000
v -1.500000 1.750000 -0.500000
v 1.500000 1.750000 0.500000
v -1.500000 2.250000 -0.500000
v 1.500000 2.250000 0.500000
v -1.500000 2.250000 0.500000
v 1.500000 2.250000 -0.500000
v -1.500000 2.750000 0.500000
v 1.500000 2.750000 -0.500000
v -1.500000 2.750000 -0.500000
v 1.500000 2.750000 0.500000
v -1.500000 3.250000 -0.500000
v 1.500000 3.250000 0.500000
v -1.500000 3.250000 0.500000
v 1.500000 3.250000 -0.500000
vn -1.0000 0.0000 0.0000
vn 0.0000 1.0000 0.0000
vn 1.0000 0.0000 0.0000
vn 0.0000 -1.0000 0.0000
vn 0.0000 0.0000 -1.0000
vn 0.0000 0.0000 1.0000
usemtl None
s off
f 35//1 33//1 4//1 3//1
f 3//2 4//2 8//2 7//2
f 40//3 38//3 6//3 5//3
f 5//4 6//4 2//4 1//4
f 37//5 40//5 5//5 1//5
f 38//6 39//6 2//6 6//6
f 54//6 55//6 10//6 12//6
f 53//5 56//5 11//5 9//5
f 56//3 54//3 12//3 11//3
f 51//1 49//1 10//1 9//1
f 64//3 62//3 16//3 14//3
f 61//5 64//5 14//5 15//5
f 62//6 63//6 13//6 16//6
f 59//1 57//1 13//1 15//1
f 43//1 41//1 19//1 17//1
f 46//6 47//6 19//6 18//6
f 45//5 48//5 20//5 17//5
f 48//3 46//3 18//3 20//3
f 53//1 55//1 23//1 21//1
f 58//3 60//3 22//3 24//3
f 59//5 58//5 24//5 21//5
f 60//6 57//6 23//6 22//6
f 50//3 52//3 28//3 26//3
f 51//5 50//5 26//5 27//5
f 52//6 49//6 25//6 28//6
f 45//1 47//1 25//1 27//1
f 37//1 39//1 31//1 29//1
f 44//6 41//6 31//6 30//6
f 43//5 42//5 32//5 29//5
f 42//3 44//3 30//3 32//3
f 8//6 4//6 33//6 36//6
f 3//5 7//5 34//5 35//5
f 7//3 8//3 36//3 34//3
f 61//1 63//1 33//1 35//1
f 1//1 2//1 39//1 37//1
f 30//6 31//6 39//6 38//6
f 29//5 32//5 40//5 37//5
f 32//3 30//3 38//3 40//3
f 20//3 18//3 44//3 42//3
f 17//5 20//5 42//5 43//5
f 18//6 19//6 41//6 44//6
f 29//1 31//1 41//1 43//1
f 17//1 19//1 47//1 45//1
f 26//3 28//3 46//3 48//3
f 27//5 26//5 48//5 45//5
f 28//6 25//6 47//6 46//6
f 12//6 10//6 49//6 52//6
f 9//5 11//5 50//5 51//5
f 11//3 12//3 52//3 50//3
f 27//1 25//1 49//1 51//1
f 9//1 10//1 55//1 53//1
f 24//3 22//3 54//3 56//3
f 21//5 24//5 56//5 53//5
f 22//6 23//6 55//6 54//6
f 16//6 13//6 57//6 60//6
f 15//5 14//5 58//5 59//5
f 14//3 16//3 60//3 58//3
f 21//1 23//1 57//1 59//1
f 15//1 13//1 63//1 61//1
f 36//6 33//6 63//6 62//6
f 35//5 34//5 64//5 61//5
f 34//3 36//3 62//3 64//3
