# Blender v2.78 (sub 0) OBJ File: ''
# www.blender.org
mtllib r_base_u3.mtl
o Cube_Cube.001
v -1.500000 0.000000 -0.500000
v -1.500000 0.000000 0.500000
v -1.500000 4.000000 -0.500000
v -1.500000 4.000000 0.500000
v 1.500000 0.000000 -0.500000
v 1.500000 0.000000 0.500000
v 1.500000 4.000000 -0.500000
v 1.500000 4.000000 0.500000
v -1.500000 2.000000 -0.500000
v -1.500000 2.000000 0.500000
v 1.500000 2.000000 -0.500000
v 1.500000 2.000000 0.500000
v -1.500000 2.999723 0.500000
v 1.500000 2.999723 -0.500000
v -1.500000 2.999723 -0.500000
v 1.500000 2.999723 0.500000
v -1.500000 1.000000 -0.500000
v 1.500000 1.000000 0.500000
v -1.500000 1.000000 0.500000
v 1.500000 1.000000 -0.500000
v -1.500000 2.499861 -0.500000
v 1.500000 2.499861 0.500000
v -1.500000 2.499861 0.500000
v 1.500000 2.499861 -0.500000
v -1.500000 3.499861 0.500000
v 1.500000 3.499861 -0.500000
v -1.500000 3.499861 -0.500000
v 1.500000 3.499861 0.500000
v -1.500000 0.500000 -0.500000
v 1.500000 0.500000 0.500000
v -1.500000 0.500000 0.500000
v 1.500000 0.500000 -0.500000
v -1.500000 1.500000 0.500000
v 1.500000 1.500000 -0.500000
v -1.500000 1.500000 -0.500000
v 1.500000 1.500000 0.500000
v -1.500000 3.749931 0.500000
v 1.500000 3.749931 -0.500000
v -1.500000 3.749931 -0.500000
v 1.500000 3.749931 0.500000
v -1.500000 0.250000 -0.500000
v 1.500000 0.250000 0.500000
v -1.500000 0.250000 0.500000
v 1.500000 0.250000 -0.500000
v -1.500000 0.750000 0.500000
v 1.500000 0.750000 -0.500000
v -1.500000 0.750000 -0.500000
v 1.500000 0.750000 0.500000
v -1.500000 3.249792 -0.500000
v 1.500000 3.249792 0.500000
v -1.500000 3.249792 0.500000
v 1.500000 3.249792 -0.500000
v -1.500000 2.749792 0.500000
v 1.500000 2.749792 -0.500000
v -1.500000 2.749792 -0.500000
v 1.500000 2.749792 0.500000
v -1.500000 1.250000 -0.500000
v 1.500000 1.250000 0.500000
v -1.500000 1.250000 0.500000
v 1.500000 1.250000 -0.500000
v -1.500000 1.750000 0.500000
v 1.500000 1.750000 -0.500000
v -1.500000 1.750000 -0.500000
v 1.500000 1.750000 0.500000
v -1.500000 2.249931 -0.500000
v 1.500000 2.249931 0.500000
v -1.500000 2.249931 0.500000
v 1.500000 2.249931 -0.500000
v -1.500000 2.624827 -0.500000
v 1.500000 2.624827 0.500000
v -1.500000 2.624827 0.500000
v 1.500000 2.624827 -0.500000
v -1.500000 2.874757 0.500000
v 1.500000 2.874757 -0.500000
v -1.500000 2.874757 -0.500000
v 1.500000 2.874757 0.500000
v -1.500000 3.124757 -0.500000
v 1.500000 3.124757 0.500000
v -1.500000 3.124757 0.500000
v 1.500000 3.124757 -0.500000
v -1.500000 3.374827 0.500000
v 1.500000 3.374827 -0.500000
v -1.500000 3.374827 -0.500000
v 1.500000 3.374827 0.500000
v -1.500000 3.624896 -0.500000
v 1.500000 3.624896 0.500000
v -1.500000 3.624896 0.500000
v 1.500000 3.624896 -0.500000
v -1.500000 3.874965 0.500000
v 1.500000 3.874965 -0.500000
v -1.500000 3.874965 -0.500000
v 1.500000 3.874965 0.500000
v -1.500000 2.374896 0.500000
v 1.500000 2.374896 -0.500000
v -1.500000 2.374896 -0.500000
v 1.500000 2.374896 0.500000
v -1.500000 2.124965 -0.500000
v 1.500000 2.124965 0.500000
v -1.500000 2.124965 0.500000
v 1.500000 2.124965 -0.500000
v -1.500000 1.875000 0.500000
v 1.500000 1.875000 -0.500000
v -1.500000 1.875000 -0.500000
v 1.500000 1.875000 0.500000
v -1.500000 1.625000 -0.500000
v 1.500000 1.625000 0.500000
v -1.500000 1.625000 0.500000
v 1.500000 1.625000 -0.500000
v -1.500000 1.375000 0.500000
v 1.500000 1.375000 -0.500000
v -1.500000 1.375000 -0.500000
v 1.500000 1.375000 0.500000
v -1.500000 1.125000 -0.500000
v 1.500000 1.125000 0.500000
v -1.500000 1.125000 0.500000
v 1.500000 1.125000 -0.500000
v -1.500000 0.875000 0.500000
v 1.500000 0.875000 -0.500000
v -1.500000 0.875000 -0.500000
v 1.500000 0.875000 0.500000
v -1.500000 0.625000 -0.500000
v 1.500000 0.625000 0.500000
v -1.500000 0.625000 0.500000
v 1.500000 0.625000 -0.500000
v -1.500000 0.375000 0.500000
v 1.500000 0.375000 -0.500000
v -1.500000 0.375000 -0.500000
v 1.500000 0.375000 0.500000
v -1.500000 0.125000 -0.500000
v 1.500000 0.125000 0.500000
v -1.500000 0.125000 0.500000
v 1.500000 0.125000 -0.500000
vn -1.0000 0.0000 0.0000
vn 0.0000 1.0000 0.0000
vn 1.0000 0.0000 0.0000
vn 0.0000 -1.0000 0.0000
vn 0.0000 0.0000 -1.0000
vn 0.0000 0.0000 1.0000
usemtl None
s off
f 91//1 89//1 4//1 3//1
f 3//2 4//2 8//2 7//2
f 132//3 130//3 6//3 5//3
f 5//4 6//4 2//4 1//4
f 129//5 132//5 5//5 1//5
f 130//6 131//6 2//6 6//6
f 98//6 99//6 10//6 12//6
f 97//5 100//5 11//5 9//5
f 100//3 98//3 12//3 11//3
f 103//1 101//1 10//1 9//1
f 80//3 78//3 16//3 14//3
f 77//5 80//5 14//5 15//5
f 78//6 79//6 13//6 16//6
f 75//1 73//1 13//1 15//1
f 119//1 117//1 19//1 17//1
f 114//6 115//6 19//6 18//6
f 113//5 116//5 20//5 17//5
f 116//3 114//3 18//3 20//3
f 95//1 93//1 23//1 21//1
f 72//3 70//3 22//3 24//3
f 69//5 72//5 24//5 21//5
f 70//6 71//6 23//6 22//6
f 86//6 87//6 25//6 28//6
f 85//5 88//5 26//5 27//5
f 88//3 86//3 28//3 26//3
f 83//1 81//1 25//1 27//1
f 127//1 125//1 31//1 29//1
f 122//6 123//6 31//6 30//6
f 121//5 124//5 32//5 29//5
f 124//3 122//3 30//3 32//3
f 108//3 106//3 36//3 34//3
f 105//5 108//5 34//5 35//5
f 106//6 107//6 33//6 36//6
f 111//1 109//1 33//1 35//1
f 90//3 92//3 40//3 38//3
f 91//5 90//5 38//5 39//5
f 92//6 89//6 37//6 40//6
f 85//1 87//1 37//1 39//1
f 129//1 131//1 43//1 41//1
f 128//6 125//6 43//6 42//6
f 127//5 126//5 44//5 41//5
f 126//3 128//3 42//3 44//3
f 118//3 120//3 48//3 46//3
f 119//5 118//5 46//5 47//5
f 120//6 117//6 45//6 48//6
f 121//1 123//1 45//1 47//1
f 77//1 79//1 51//1 49//1
f 84//6 81//6 51//6 50//6
f 83//5 82//5 52//5 49//5
f 82//3 84//3 50//3 52//3
f 76//6 73//6 53//6 56//6
f 75//5 74//5 54//5 55//5
f 74//3 76//3 56//3 54//3
f 69//1 71//1 53//1 55//1
f 113//1 115//1 59//1 57//1
f 110//3 112//3 58//3 60//3
f 111//5 110//5 60//5 57//5
f 112//6 109//6 59//6 58//6
f 104//6 101//6 61//6 64//6
f 103//5 102//5 62//5 63//5
f 102//3 104//3 64//3 62//3
f 105//1 107//1 61//1 63//1
f 97//1 99//1 67//1 65//1
f 94//3 96//3 66//3 68//3
f 95//5 94//5 68//5 65//5
f 96//6 93//6 67//6 66//6
f 21//1 23//1 71//1 69//1
f 56//6 53//6 71//6 70//6
f 55//5 54//5 72//5 69//5
f 54//3 56//3 70//3 72//3
f 14//3 16//3 76//3 74//3
f 15//5 14//5 74//5 75//5
f 16//6 13//6 73//6 76//6
f 55//1 53//1 73//1 75//1
f 15//1 13//1 79//1 77//1
f 50//6 51//6 79//6 78//6
f 49//5 52//5 80//5 77//5
f 52//3 50//3 78//3 80//3
f 26//3 28//3 84//3 82//3
f 27//5 26//5 82//5 83//5
f 28//6 25//6 81//6 84//6
f 49//1 51//1 81//1 83//1
f 27//1 25//1 87//1 85//1
f 38//3 40//3 86//3 88//3
f 39//5 38//5 88//5 85//5
f 40//6 37//6 87//6 86//6
f 8//6 4//6 89//6 92//6
f 3//5 7//5 90//5 91//5
f 7//3 8//3 92//3 90//3
f 39//1 37//1 89//1 91//1
f 22//6 23//6 93//6 96//6
f 21//5 24//5 94//5 95//5
f 24//3 22//3 96//3 94//3
f 65//1 67//1 93//1 95//1
f 9//1 10//1 99//1 97//1
f 68//3 66//3 98//3 100//3
f 65//5 68//5 100//5 97//5
f 66//6 67//6 99//6 98//6
f 11//3 12//3 104//3 102//3
f 9//5 11//5 102//5 103//5
f 12//6 10//6 101//6 104//6
f 63//1 61//1 101//1 103//1
f 35//1 33//1 107//1 105//1
f 64//6 61//6 107//6 106//6
f 63//5 62//5 108//5 105//5
f 62//3 64//3 106//3 108//3
f 36//6 33//6 109//6 112//6
f 35//5 34//5 110//5 111//5
f 34//3 36//3 112//3 110//3
f 57//1 59//1 109//1 111//1
f 17//1 19//1 115//1 113//1
f 60//3 58//3 114//3 116//3
f 57//5 60//5 116//5 113//5
f 58//6 59//6 115//6 114//6
f 18//6 19//6 117//6 120//6
f 17//5 20//5 118//5 119//5
f 20//3 18//3 120//3 118//3
f 47//1 45//1 117//1 119//1
f 29//1 31//1 123//1 121//1
f 46//3 48//3 122//3 124//3
f 47//5 46//5 124//5 121//5
f 48//6 45//6 123//6 122//6
f 32//3 30//3 128//3 126//3
f 29//5 32//5 126//5 127//5
f 30//6 31//6 125//6 128//6
f 41//1 43//1 125//1 127//1
f 1//1 2//1 131//1 129//1
f 42//6 43//6 131//6 130//6
f 41//5 44//5 132//5 129//5
f 44//3 42//3 130//3 132//3
