# Blender v2.78 (sub 0) OBJ File: ''
# www.blender.org
mtllib r_base_sword.mtl
o sword.003
v -1.000000 0.000000 0.700000
v -1.000000 3.250000 0.700006
v -1.000000 3.250000 0.500006
v -1.000000 0.000000 0.500000
v 1.000000 3.250000 0.500006
v 1.000000 0.000000 0.500000
v 1.000000 3.250000 0.700006
v 1.000000 0.000000 0.700000
v -1.750000 3.250000 0.700006
v -1.750000 3.750000 0.700006
v -1.750000 3.750000 0.500006
v -1.750000 3.250000 0.500006
v 1.750000 3.750000 0.500006
v 1.750000 3.250000 0.500006
v 1.750000 3.750000 0.700006
v 1.750000 3.250000 0.700006
vn -1.0000 0.0000 0.0000
vn 0.0000 0.0000 -1.0000
vn 1.0000 0.0000 0.0000
vn 0.0000 -0.0000 1.0000
vn 0.0000 -1.0000 0.0000
vn 0.0000 1.0000 0.0000
usemtl None.024
s 1
f 1//1 2//1 3//1 4//1
f 4//2 3//2 5//2 6//2
f 6//3 5//3 7//3 8//3
f 8//4 7//4 2//4 1//4
f 4//5 6//5 8//5 1//5
f 5//6 3//6 2//6 7//6
f 9//1 10//1 11//1 12//1
f 12//2 11//2 13//2 14//2
f 14//3 13//3 15//3 16//3
f 16//4 15//4 10//4 9//4
f 12//5 14//5 16//5 9//5
f 13//6 11//6 10//6 15//6
o Cube.003
v 2.241893 -0.000001 -0.500003
v 2.241893 -0.000001 0.499997
v -2.258107 -0.000001 0.499997
v -2.258107 -0.000001 -0.500003
v 1.330030 3.999999 -0.499995
v -1.290890 3.999999 -0.499996
v -1.290891 3.999999 0.500004
v 1.330028 3.999999 0.500004
v -2.258107 -0.000001 -0.500003
v -2.258107 -0.000001 0.499997
v 2.241893 -0.000001 -0.500003
v 2.241893 -0.000001 0.499997
v 1.327754 4.000000 -0.499995
v 1.327752 3.999999 0.500004
v -1.295099 3.999999 0.500004
v -1.295098 3.999999 -0.499996
v -1.446450 3.604599 -0.499996
v -1.446411 3.605858 0.500004
v -1.520662 3.147645 -0.499996
v -1.520514 3.149096 0.500002
v -1.582500 2.662113 -0.500002
v -1.582302 2.663446 0.499998
v -1.668076 2.155630 -0.500002
v -1.667604 2.158152 0.499998
v -1.775248 1.634396 -0.500002
v -1.774932 1.635814 0.499998
v -1.904846 1.099323 -0.500002
v -1.904412 1.100983 0.499998
v -2.060372 0.552944 -0.500002
v -2.059880 0.554533 0.499998
v 1.438767 3.604599 0.500004
v 1.438714 3.605859 -0.499996
v 1.514868 3.147645 0.500002
v 1.514712 3.149098 -0.499996
v 1.578772 2.662114 0.499998
v 1.578571 2.663447 -0.500001
v 1.665013 2.155630 0.499998
v 1.664541 2.158153 -0.500001
v 1.771517 1.634395 0.499998
v 1.771204 1.635816 -0.500001
v 1.899044 1.099324 0.499998
v 1.898619 1.100985 -0.500002
v 2.050814 0.552944 0.499998
v 2.050335 0.554533 -0.500002
vn 0.0000 -1.0000 0.0000
vn -0.0000 1.0000 0.0000
vn 0.0000 0.0000 1.0000
vn -0.1560 0.0637 0.9857
vn 0.0000 0.0000 0.0000
vn 0.6245 -0.7779 -0.0700
vn 0.4471 -0.8945 0.0000
vn -0.0002 -1.0000 -0.0000
vn -0.0306 -0.9407 0.3377
vn -0.9294 -0.3691 -0.0002
vn -0.3064 0.6094 -0.7312
vn -0.9337 0.3579 -0.0002
vn -0.9871 0.1602 -0.0001
vn -0.9920 0.1263 -0.0000
vn -0.9860 0.1665 0.0000
vn -0.9795 0.2013 -0.0000
vn -0.9719 0.2353 0.0000
vn -0.9618 0.2737 0.0000
vn -0.9416 0.3367 -0.0000
vn 0.4589 0.8885 0.0000
vn 0.0128 0.9932 -0.1153
vn -0.3535 -0.9239 -0.1464
vn -0.1464 -0.9239 0.3535
vn 0.3535 -0.9239 0.1464
vn 0.1464 -0.9239 -0.3535
vn 0.7297 0.2778 0.6248
vn 0.8142 0.5798 0.0306
vn 0.9627 0.2707 0.0001
vn 0.9864 0.1642 0.0001
vn 0.9915 0.1304 0.0000
vn 0.9858 0.1678 -0.0000
vn 0.9798 0.2001 0.0000
vn 0.9728 0.2318 -0.0000
vn 0.9635 0.2676 -0.0000
vn 0.9452 0.3266 0.0000
vn 0.5254 0.8509 -0.0000
vn 0.6047 0.0089 -0.7964
vn 0.0000 0.0000 -1.0000
vn -0.9990 0.0000 0.0440
vn 0.2491 0.0000 -0.9685
vn 0.2470 0.0318 -0.9685
vn 0.2408 0.0638 -0.9685
vn 0.2308 0.0937 -0.9685
vn 0.2182 0.1201 -0.9685
vn 0.2046 0.1420 -0.9685
vn 0.1912 0.1596 -0.9685
vn 0.1783 0.1740 -0.9685
vn 0.8660 -0.0000 -0.5000
vn -0.1641 -0.4287 0.8884
vn 0.1544 0.0672 -0.9857
vn 0.1663 0.1854 0.9685
usemtl Material.002
s 1
f 17//7 18//7 19//7 20//7
f 21//8 22//8 23//8 24//8
f 21//9 20//9 25//10
f 19//11 26//11 25//11 20//11
f 17//11 27//11 28//11 18//11
f 19//9 18//9 28//9
f 29//12 21//13 24//14 30//15
f 31//16 32//17 33//18 34//18
f 34//19 33//19 35//19 36//19
f 36//20 35//20 37//20 38//20
f 38//21 37//21 39//21 40//21
f 40//22 39//22 41//22 42//22
f 42//23 41//23 43//23 44//23
f 44//24 43//24 45//24 46//24
f 46//25 45//25 25//26 26//27
f 31//28 23//29 22//30 32//31
f 29//32 30//33 47//34 48//34
f 48//35 47//35 49//35 50//35
f 50//36 49//36 51//36 52//36
f 52//37 51//37 53//37 54//37
f 54//38 53//38 55//38 56//38
f 56//39 55//39 57//39 58//39
f 58//40 57//40 59//40 60//40
f 60//41 59//41 28//42 27//43
f 34//9 36//9 47//9
f 19//9 28//9 46//9
f 46//9 26//9 19//9
f 28//9 59//9 46//9
f 59//9 44//9 46//9
f 59//9 57//9 44//9
f 57//9 42//9 44//9
f 57//9 55//9 42//9
f 55//9 53//9 42//9
f 42//9 53//9 40//9
f 53//9 51//9 40//9
f 40//9 51//9 38//9
f 47//9 30//44 24//45
f 51//9 49//9 38//9
f 38//9 49//9 36//9
f 24//45 23//44 31//9
f 24//45 31//9 34//9
f 49//9 47//9 36//9
f 24//45 34//9 47//9
f 60//9 27//44 17//44
f 60//44 17//9 20//46
f 58//44 60//44 20//47
f 56//44 58//44 20//48
f 54//44 56//44 20//49
f 52//44 54//44 20//50
f 50//44 52//44 20//51
f 48//44 50//44 20//52
f 29//44 48//44 20//53
f 32//8 22//54 21//7
f 33//44 32//55 21//44
f 35//44 33//44 21//44
f 37//44 35//44 21//44
f 39//44 37//44 21//44
f 41//44 39//44 21//44
f 43//44 41//44 21//44
f 45//44 43//44 21//44
f 25//56 45//44 21//44
f 21//9 29//9 20//57
