# Blender v2.78 (sub 0) OBJ File: ''
# www.blender.org
mtllib r_chest2.mtl
o l_chest
v -0.700000 4.000000 0.227823
v -0.700000 4.000000 0.455646
v -1.399999 4.000000 0.455646
v -1.399999 4.000000 0.227823
v -0.700000 8.000000 0.227827
v -1.400000 8.000000 0.227827
v -1.400000 8.000000 0.455650
v -0.700000 8.000000 0.455650
v 1.399999 7.500000 0.227827
v 1.399999 8.000000 0.227828
v 1.399998 8.000000 0.455650
v 1.399998 7.500000 0.455650
v -0.700000 7.500000 0.455650
v -1.400000 7.500000 0.455650
v -1.399999 7.500000 -0.227819
v -1.399999 8.000000 -0.227819
v -1.399999 8.000000 -0.455642
v -1.399999 7.500000 -0.455642
v -0.699999 4.500000 -0.455646
v -0.700000 4.000000 -0.455646
v -1.399999 4.000000 -0.455646
v -1.399999 4.500000 -0.455646
v -0.699999 6.500000 -0.455643
v -0.699999 6.000000 -0.455644
v -1.399999 6.000000 -0.455644
v -1.399999 6.500000 -0.455643
v -1.399999 5.500000 -0.227822
v -1.399999 6.000000 -0.227821
v -1.399999 5.500000 -0.455645
v -0.700000 5.500000 0.455647
v -0.700000 6.000000 0.455648
v -1.400000 6.000000 0.455648
v -1.399999 5.500000 0.455647
v 1.399999 5.500000 0.227824
v 1.399999 6.000000 0.227825
v 1.399999 6.000000 0.455648
v 1.399999 5.500000 0.455647
v 1.399999 4.500000 0.227823
v 1.399999 5.000000 0.227824
v 1.399999 5.000000 0.455647
v 1.399999 4.500000 0.455646
v 1.399999 4.500000 -0.227823
v 1.399999 5.000000 -0.227822
v 1.399999 5.000000 0.000001
v 1.399999 4.500000 -0.000000
v 1.399999 5.500000 -0.227821
v 1.399999 6.000000 -0.227821
v 1.399999 6.000000 0.000002
v 1.399999 5.500000 0.000002
v -0.700000 4.500000 0.455646
v -0.700000 5.000000 0.455647
v -1.399999 5.000000 0.455647
v -1.399999 4.500000 0.455646
v 0.699999 4.500000 0.455646
v 0.699999 5.000000 0.455647
v -0.000000 5.000000 0.455647
v -0.000000 4.500000 0.455646
v 0.699999 5.500000 0.455647
v 0.699999 6.000000 0.455648
v -0.000000 6.000000 0.455648
v -0.000000 5.500000 0.455647
v -1.399999 4.500000 -0.227823
v -1.399999 5.000000 -0.227822
v -1.399999 5.000000 -0.455645
v -1.399999 4.500000 0.227823
v -1.399999 5.000000 0.227824
v -1.399999 5.000000 0.000001
v -1.399999 4.500000 -0.000000
v -1.399999 5.500000 0.227824
v -1.399999 6.000000 0.227825
v -1.399999 6.000000 0.000002
v -1.399999 5.500000 0.000001
v -0.699999 7.500000 -0.455642
v -0.699999 7.000000 -0.455643
v -1.399999 7.000000 -0.455643
v 0.700000 7.500000 -0.455642
v 0.700000 7.000000 -0.455642
v -0.000000 7.000000 -0.455642
v -0.000000 7.500000 -0.455642
v 0.700000 6.500000 -0.455643
v 0.700000 6.000000 -0.455644
v -0.000000 6.000000 -0.455644
v -0.000000 6.500000 -0.455643
v -0.699999 5.500000 -0.455644
v -0.699999 5.000000 -0.455645
v 0.700000 5.500000 -0.455644
v 0.700000 5.000000 -0.455645
v -0.000000 5.000000 -0.455645
v -0.000000 5.500000 -0.455644
v 0.700000 4.500000 -0.455646
v 0.700000 4.000000 -0.455646
v -0.000000 4.000000 -0.455646
v -0.000000 4.500000 -0.455646
v -1.399999 6.500000 -0.227820
v -1.399999 7.000000 -0.227820
v -1.400000 6.500000 0.227826
v -1.400000 7.000000 0.227826
v -1.399999 7.000000 0.000003
v -1.399999 6.500000 0.000003
v -1.400000 7.500000 0.227827
v -1.400000 8.000000 0.000004
v -1.400000 7.500000 0.000004
v -0.700000 6.500000 0.455648
v -0.700000 7.000000 0.455649
v -1.400000 7.000000 0.455649
v -1.400000 6.500000 0.455648
v 0.699999 6.500000 0.455648
v 0.699999 7.000000 0.455649
v -0.000001 7.000000 0.455649
v -0.000001 6.500000 0.455648
v 0.699999 7.500000 0.455650
v 0.699999 8.000000 0.455650
v -0.000001 8.000000 0.455650
v -0.000001 7.500000 0.455650
v 1.399999 6.500000 0.227826
v 1.399999 7.000000 0.227826
v 1.399998 7.000000 0.455649
v 1.399998 6.500000 0.455648
v 1.399999 6.500000 -0.227820
v 1.399999 7.000000 -0.227819
v 1.399999 7.000000 0.000004
v 1.399999 6.500000 0.000003
v 1.400000 7.500000 -0.227819
v 1.400000 8.000000 -0.227818
v 1.399999 8.000000 0.000005
v 1.399999 7.500000 0.000004
v 0.699999 8.000000 0.227828
v -0.000001 8.000000 0.227827
v 0.700000 8.000000 -0.227818
v -0.000000 8.000000 -0.227818
v -0.000000 8.000000 0.000005
v 0.699999 8.000000 0.000005
v -0.700000 8.000000 -0.227818
v -0.700000 8.000000 0.000004
v -0.700000 4.000000 -0.227823
v -0.700000 4.000000 -0.000000
v -1.399999 4.000000 -0.000000
v -1.399999 4.000000 -0.227823
v 0.700000 4.000000 -0.227823
v 0.700000 4.000000 -0.000000
v -0.000000 4.000000 -0.000000
v -0.000000 4.000000 -0.227823
v 0.700000 4.000000 0.227823
v 0.700000 4.000000 0.455646
v -0.000000 4.000000 0.455646
v -0.000000 4.000000 0.227823
v 1.399999 4.000000 -0.000000
v 1.399999 4.000000 0.227823
v 1.399999 4.000000 0.455646
v 1.399999 4.000000 -0.455646
v 1.399999 4.000000 -0.227823
v -0.000000 8.000000 -0.455641
v -0.699999 8.000000 -0.455641
v 1.400000 8.000000 -0.455641
v 0.700000 8.000000 -0.455641
v 1.400000 7.000000 -0.455642
v 1.400000 7.500000 -0.455641
v 1.400000 6.000000 -0.455644
v 1.400000 6.500000 -0.455643
v 1.399999 5.000000 -0.455645
v 1.399999 4.500000 -0.455646
v 1.399999 5.500000 -0.455644
vn 0.0000 -1.0000 0.0000
vn 0.0000 1.0000 0.0000
vn 1.0000 -0.0000 0.0000
vn 0.0000 -0.0000 1.0000
vn -1.0000 -0.0000 -0.0000
vn 0.0000 0.0000 -1.0000
usemtl Material.058
s 1
f 1//1 2//1 3//1 4//1
f 5//2 6//2 7//2 8//2
f 9//3 10//3 11//3 12//3
f 13//4 8//4 7//4 14//4
f 15//5 16//5 17//5 18//5
f 19//6 20//6 21//6 22//6
f 23//6 24//6 25//6 26//6
f 27//5 28//5 25//5 29//5
f 30//4 31//4 32//4 33//4
f 34//3 35//3 36//3 37//3
f 38//3 39//3 40//3 41//3
f 42//3 43//3 44//3 45//3
f 46//3 47//3 48//3 49//3
f 50//4 51//4 52//4 53//4
f 54//4 55//4 56//4 57//4
f 58//4 59//4 60//4 61//4
f 62//5 63//5 64//5 22//5
f 65//5 66//5 67//5 68//5
f 69//5 70//5 71//5 72//5
f 73//6 74//6 75//6 18//6
f 76//6 77//6 78//6 79//6
f 80//6 81//6 82//6 83//6
f 84//6 85//6 64//6 29//6
f 86//6 87//6 88//6 89//6
f 90//6 91//6 92//6 93//6
f 94//5 95//5 75//5 26//5
f 96//5 97//5 98//5 99//5
f 100//5 6//5 101//5 102//5
f 103//4 104//4 105//4 106//4
f 107//4 108//4 109//4 110//4
f 111//4 112//4 113//4 114//4
f 115//3 116//3 117//3 118//3
f 119//3 120//3 121//3 122//3
f 123//3 124//3 125//3 126//3
f 127//2 128//2 113//2 112//2
f 129//2 130//2 131//2 132//2
f 133//2 16//2 101//2 134//2
f 135//1 136//1 137//1 138//1
f 139//1 140//1 141//1 142//1
f 143//1 144//1 145//1 146//1
f 140//1 143//1 146//1 141//1
f 147//1 148//1 143//1 140//1
f 148//1 149//1 144//1 143//1
f 91//1 139//1 142//1 92//1
f 150//1 151//1 139//1 91//1
f 151//1 147//1 140//1 139//1
f 20//1 135//1 138//1 21//1
f 92//1 142//1 135//1 20//1
f 142//1 141//1 136//1 135//1
f 130//2 133//2 134//2 131//2
f 152//2 153//2 133//2 130//2
f 153//2 17//2 16//2 133//2
f 124//2 129//2 132//2 125//2
f 154//2 155//2 129//2 124//2
f 155//2 152//2 130//2 129//2
f 10//2 127//2 112//2 11//2
f 125//2 132//2 127//2 10//2
f 132//2 131//2 128//2 127//2
f 120//3 123//3 126//3 121//3
f 156//3 157//3 123//3 120//3
f 157//3 154//3 124//3 123//3
f 47//3 119//3 122//3 48//3
f 158//3 159//3 119//3 47//3
f 159//3 156//3 120//3 119//3
f 35//3 115//3 118//3 36//3
f 48//3 122//3 115//3 35//3
f 122//3 121//3 116//3 115//3
f 108//4 111//4 114//4 109//4
f 117//4 12//4 111//4 108//4
f 12//4 11//4 112//4 111//4
f 59//4 107//4 110//4 60//4
f 36//4 118//4 107//4 59//4
f 118//4 117//4 108//4 107//4
f 31//4 103//4 106//4 32//4
f 60//4 110//4 103//4 31//4
f 110//4 109//4 104//4 103//4
f 97//5 100//5 102//5 98//5
f 105//5 14//5 100//5 97//5
f 14//5 7//5 6//5 100//5
f 70//5 96//5 99//5 71//5
f 32//5 106//5 96//5 70//5
f 106//5 105//5 97//5 96//5
f 28//5 94//5 26//5 25//5
f 71//5 99//5 94//5 28//5
f 99//5 98//5 95//5 94//5
f 87//6 90//6 93//6 88//6
f 160//6 161//6 90//6 87//6
f 161//6 150//6 91//6 90//6
f 81//6 86//6 89//6 82//6
f 158//6 162//6 86//6 81//6
f 162//6 160//6 87//6 86//6
f 24//6 84//6 29//6 25//6
f 82//6 89//6 84//6 24//6
f 89//6 88//6 85//6 84//6
f 77//6 80//6 83//6 78//6
f 156//6 159//6 80//6 77//6
f 159//6 158//6 81//6 80//6
f 155//6 76//6 79//6 152//6
f 154//6 157//6 76//6 155//6
f 157//6 156//6 77//6 76//6
f 153//6 73//6 18//6 17//6
f 152//6 79//6 73//6 153//6
f 79//6 78//6 74//6 73//6
f 66//5 69//5 72//5 67//5
f 52//5 33//5 69//5 66//5
f 33//5 32//5 70//5 69//5
f 4//5 65//5 68//5 137//5
f 3//5 53//5 65//5 4//5
f 53//5 52//5 66//5 65//5
f 138//5 62//5 22//5 21//5
f 137//5 68//5 62//5 138//5
f 68//5 67//5 63//5 62//5
f 55//4 58//4 61//4 56//4
f 40//4 37//4 58//4 55//4
f 37//4 36//4 59//4 58//4
f 144//4 54//4 57//4 145//4
f 149//4 41//4 54//4 144//4
f 41//4 40//4 55//4 54//4
f 2//4 50//4 53//4 3//4
f 145//4 57//4 50//4 2//4
f 57//4 56//4 51//4 50//4
f 43//3 46//3 49//3 44//3
f 160//3 162//3 46//3 43//3
f 162//3 158//3 47//3 46//3
f 151//3 42//3 45//3 147//3
f 150//3 161//3 42//3 151//3
f 161//3 160//3 43//3 42//3
f 148//3 38//3 41//3 149//3
f 147//3 45//3 38//3 148//3
f 45//3 44//3 39//3 38//3
f 39//3 34//3 37//3 40//3
f 44//3 49//3 34//3 39//3
f 49//3 48//3 35//3 34//3
f 51//4 30//4 33//4 52//4
f 56//4 61//4 30//4 51//4
f 61//4 60//4 31//4 30//4
f 63//5 27//5 29//5 64//5
f 67//5 72//5 27//5 63//5
f 72//5 71//5 28//5 27//5
f 74//6 23//6 26//6 75//6
f 78//6 83//6 23//6 74//6
f 83//6 82//6 24//6 23//6
f 85//6 19//6 22//6 64//6
f 88//6 93//6 19//6 85//6
f 93//6 92//6 20//6 19//6
f 95//5 15//5 18//5 75//5
f 98//5 102//5 15//5 95//5
f 102//5 101//5 16//5 15//5
f 104//4 13//4 14//4 105//4
f 109//4 114//4 13//4 104//4
f 114//4 113//4 8//4 13//4
f 116//3 9//3 12//3 117//3
f 121//3 126//3 9//3 116//3
f 126//3 125//3 10//3 9//3
f 128//2 5//2 8//2 113//2
f 131//2 134//2 5//2 128//2
f 134//2 101//2 6//2 5//2
f 136//1 1//1 4//1 137//1
f 141//1 146//1 1//1 136//1
f 146//1 145//1 2//1 1//1
o marker_chest
v 0.000000 7.000000 0.500004
v 0.000000 7.000000 0.500004
v 0.000000 7.000000 0.500004
v 0.000000 7.000000 0.500004
vn 0.0000 0.0000 1.0000
usemtl None.022
s off
f 163//7 164//7 165//7 166//7
o base.001_base.000
v 0.000001 8.000000 -0.499992
v -1.499999 8.000000 -0.499992
v -0.750000 8.000000 0.030820
v 1.612182 7.230169 -0.499996
v 1.500000 8.000000 -0.499991
v 1.556090 7.615084 0.030819
v 0.000000 7.196363 0.561631
v -0.000001 8.000000 0.561633
v -0.802271 7.528462 0.561631
v -1.685712 7.331687 0.561630
v -1.500000 8.000000 0.561633
v -1.592856 7.665844 0.030819
v 0.000000 7.196363 -0.499996
v -0.802271 7.528463 -0.499994
v 0.789453 7.528425 -0.499994
v 1.612182 7.230169 0.561631
v 1.499998 8.000000 0.561633
v 0.789452 7.528425 0.561631
v 0.749999 8.000000 0.030820
v 1.240000 6.909219 -0.499998
v 1.240000 6.909219 0.561627
v 0.620000 7.052791 0.030816
v -0.620572 7.051880 0.030816
v 1.426091 7.069694 0.030817
v -1.237947 6.919102 -0.490844
v -1.673792 7.334971 -0.490795
v -1.455863 7.127031 0.030817
v 0.000001 7.990000 -0.489992
v -0.000001 7.990000 0.551633
v -0.746228 7.989815 0.030820
v 1.600783 7.234424 -0.490837
v 1.600783 7.234424 0.552472
v 1.545994 7.612008 0.030819
v -0.000007 7.207445 0.552235
v -1.237947 6.919102 0.552474
v -0.798017 7.528709 0.552158
v -1.673792 7.334971 0.552429
v -1.582968 7.662258 0.030818
v -1.492119 7.989631 -0.490564
v -0.798017 7.528709 -0.490522
v 1.491176 7.989796 -0.490344
v 0.785168 7.528637 -0.490474
v 1.237122 6.920879 0.552491
v 0.785167 7.528637 0.552111
v 1.491174 7.989796 0.551985
v 0.745691 7.989898 0.030820
v 1.237122 6.920879 -0.490861
v -0.000007 7.207445 -0.490601
v 0.618627 7.064146 0.030816
v -0.619042 7.063259 0.030816
v 1.418950 7.077649 0.030817
v -1.241145 6.907396 -0.499998
v -1.241145 6.907396 0.561627
v -1.463428 7.119542 0.030816
v -1.685712 7.331687 -0.499996
v -1.492120 7.989631 0.552204
vn 0.0000 0.7071 -0.7071
vn -0.4872 0.6411 -0.5930
vn 0.0000 1.0000 -0.0000
vn 0.7401 -0.2762 -0.6132
vn 0.5304 0.6133 -0.5853
vn 0.9895 0.1442 0.0000
vn 0.0004 -0.6479 0.7617
vn 0.0000 0.7071 0.7071
vn -0.0000 -0.0000 1.0000
vn -0.7657 -0.2110 0.6077
vn -0.4872 0.6411 0.5930
vn -0.9635 0.2677 -0.0000
vn 0.0004 -0.6479 -0.7617
vn 0.0000 0.0000 -1.0000
vn 0.7401 -0.2762 0.6132
vn 0.5304 0.6133 0.5853
vn 0.1884 -0.7632 -0.6180
vn 0.1884 -0.7632 0.6180
vn -0.2256 -0.9742 0.0000
vn 0.2268 -0.9740 0.0000
vn 0.6531 -0.7573 -0.0000
vn 0.2078 0.7612 0.6143
vn 0.7655 0.2110 0.6078
vn 0.6903 0.7235 0.0000
vn 0.0000 -0.7075 0.7067
vn 0.0000 -0.7075 -0.7067
vn 0.0002 -1.0000 0.0000
vn -0.7399 0.2763 0.6134
vn -0.7399 0.2763 -0.6134
vn -0.9896 -0.1436 -0.0000
vn -0.0004 0.6476 -0.7620
vn 0.2078 0.7612 -0.6143
vn -0.0002 -0.0005 -1.0000
vn 0.7655 0.2110 -0.6078
vn 0.9636 -0.2674 0.0000
vn 0.4873 -0.6410 0.5929
vn -0.0002 -0.0005 1.0000
vn -0.5306 -0.6132 0.5852
vn 0.0002 -0.0006 1.0000
vn -0.1883 0.7631 -0.6182
vn 0.0002 -0.0006 -1.0000
vn -0.5306 -0.6132 -0.5852
vn -0.0001 -1.0000 -0.0000
vn -0.1883 0.7631 0.6182
vn -0.0004 0.6476 0.7620
vn 0.2257 0.9742 0.0000
vn -0.2268 0.9739 0.0000
vn -0.6530 0.7574 -0.0000
vn -0.2080 -0.7613 -0.6141
vn -0.2080 -0.7613 0.6141
vn -0.6904 -0.7234 -0.0000
vn -0.7657 -0.2110 -0.6077
vn 0.4873 -0.6410 -0.5929
usemtl Material.003
s 1
f 167//8 168//9 169//10
f 170//11 171//12 172//13
f 173//14 174//15 175//16
f 176//17 177//18 178//19
f 167//8 179//20 180//21
f 171//12 170//11 181//21
f 182//22 183//23 184//16
f 171//12 167//8 185//10
f 186//24 187//25 188//26
f 179//20 173//14 189//27
f 170//11 182//22 190//28
f 191//29 192//30 193//31
f 194//32 195//33 196//34
f 197//35 198//36 199//37
f 200//38 201//39 202//40
f 203//41 192//30 204//42
f 194//32 205//43 206//44
f 207//45 194//32 208//46
f 198//36 209//47 210//48
f 207//45 211//49 212//50
f 213//51 214//52 215//53
f 214//52 191//29 216//54
f 197//35 213//51 217//55
f 218//56 219//57 220//58
f 219//57 176//17 220//58
f 176//17 221//59 220//58
f 221//59 218//56 220//58
f 168//9 177//18 169//10
f 177//18 174//15 169//10
f 174//15 167//8 169//10
f 171//12 183//23 172//13
f 183//23 182//22 172//13
f 182//22 170//11 172//13
f 174//15 177//18 175//16
f 177//18 176//17 175//16
f 176//17 219//57 175//16
f 219//57 173//14 175//16
f 177//18 168//9 178//19
f 168//9 221//59 178//19
f 221//59 176//17 178//19
f 179//20 218//56 180//21
f 218//56 221//59 180//21
f 221//59 168//9 180//21
f 168//9 167//8 180//21
f 170//11 186//24 181//21
f 186//24 179//20 181//21
f 179//20 167//8 181//21
f 167//8 171//12 181//21
f 183//23 174//15 184//16
f 174//15 173//14 184//16
f 173//14 187//25 184//16
f 187//25 182//22 184//16
f 167//8 174//15 185//10
f 174//15 183//23 185//10
f 183//23 171//12 185//10
f 187//25 173//14 188//26
f 173//14 179//20 188//26
f 179//20 186//24 188//26
f 173//14 219//57 189//27
f 219//57 218//56 189//27
f 218//56 179//20 189//27
f 182//22 187//25 190//28
f 187//25 186//24 190//28
f 186//24 170//11 190//28
f 192//30 203//41 193//31
f 203//41 201//39 193//31
f 201//39 191//29 193//31
f 195//33 222//60 196//34
f 222//60 205//43 196//34
f 205//43 194//32 196//34
f 198//36 211//49 199//37
f 211//49 207//45 199//37
f 207//45 197//35 199//37
f 201//39 203//41 202//40
f 203//41 222//60 202//40
f 222//60 195//33 202//40
f 195//33 200//38 202//40
f 192//30 205//43 204//42
f 205//43 222//60 204//42
f 222//60 203//41 204//42
f 205//43 192//30 206//44
f 192//30 191//29 206//44
f 191//29 214//52 206//44
f 214//52 194//32 206//44
f 194//32 214//52 208//46
f 214//52 213//51 208//46
f 213//51 197//35 208//46
f 197//35 207//45 208//46
f 209//47 200//38 210//48
f 200//38 195//33 210//48
f 195//33 211//49 210//48
f 211//49 198//36 210//48
f 211//49 195//33 212//50
f 195//33 194//32 212//50
f 194//32 207//45 212//50
f 214//52 200//38 215//53
f 200//38 209//47 215//53
f 209//47 213//51 215//53
f 191//29 201//39 216//54
f 201//39 200//38 216//54
f 200//38 214//52 216//54
f 213//51 209//47 217//55
f 209//47 198//36 217//55
f 198//36 197//35 217//55
