# Blender v2.78 (sub 0) OBJ File: ''
# www.blender.org
mtllib r_chest2.mtl
o base.001_base.000
v 0.000001 8.000000 -0.499991
v -1.499999 8.000000 -0.499991
v -0.750000 8.000000 0.030821
v 1.612182 7.230169 -0.499995
v 1.500000 8.000000 -0.499990
v 1.556090 7.615084 0.030820
v 0.000000 7.196363 0.561632
v -0.000001 8.000000 0.561634
v -0.802271 7.528462 0.561632
v -1.685712 7.331687 0.561631
v -1.500000 8.000000 0.561634
v -1.592856 7.665844 0.030820
v 0.000000 7.196363 -0.499995
v -0.802271 7.528463 -0.499993
v 0.789453 7.528425 -0.499993
v 1.612182 7.230169 0.561632
v 1.499998 8.000000 0.561634
v 0.789452 7.528425 0.561632
v 0.749999 8.000000 0.030821
v 1.240000 6.909219 -0.499997
v 1.240000 6.909219 0.561628
v 0.620000 7.052791 0.030817
v -0.620572 7.051880 0.030817
v 1.426091 7.069694 0.030818
v -1.237947 6.919102 -0.490843
v -1.673792 7.334971 -0.490794
v -1.455863 7.127031 0.030818
v 0.000001 7.990000 -0.489991
v -0.000001 7.990000 0.551634
v -0.746228 7.989815 0.030821
v 1.600783 7.234424 -0.490836
v 1.600783 7.234424 0.552473
v 1.545994 7.612008 0.030820
v -0.000007 7.207445 0.552236
v -1.237947 6.919102 0.552475
v -0.798017 7.528709 0.552159
v -1.673792 7.334971 0.552430
v -1.582968 7.662258 0.030819
v -1.492119 7.989631 -0.490563
v -0.798017 7.528709 -0.490521
v 1.491176 7.989796 -0.490343
v 0.785168 7.528637 -0.490473
v 1.237122 6.920879 0.552492
v 0.785167 7.528637 0.552112
v 1.491174 7.989796 0.551986
v 0.745691 7.989898 0.030821
v 1.237122 6.920879 -0.490860
v -0.000007 7.207445 -0.490600
v 0.618627 7.064146 0.030817
v -0.619042 7.063259 0.030817
v 1.418950 7.077649 0.030818
v -1.241145 6.907396 -0.499997
v -1.241145 6.907396 0.561628
v -1.463428 7.119542 0.030817
v -1.685712 7.331687 -0.499995
v -1.492120 7.989631 0.552205
vn 0.0000 0.7071 -0.7071
vn -0.4872 0.6411 -0.5930
vn 0.0000 1.0000 -0.0000
vn 0.7401 -0.2762 -0.6132
vn 0.5304 0.6133 -0.5853
vn 0.9895 0.1442 0.0000
vn 0.0004 -0.6479 0.7617
vn 0.0000 0.7071 0.7071
vn -0.0000 -0.0000 1.0000
vn -0.7657 -0.2110 0.6077
vn -0.4872 0.6411 0.5930
vn -0.9635 0.2677 -0.0000
vn 0.0004 -0.6479 -0.7617
vn 0.0000 0.0000 -1.0000
vn 0.7401 -0.2762 0.6132
vn 0.5304 0.6133 0.5853
vn 0.1884 -0.7632 -0.6180
vn 0.1884 -0.7632 0.6180
vn -0.2256 -0.9742 0.0000
vn 0.2268 -0.9740 0.0000
vn 0.6531 -0.7573 -0.0000
vn 0.2078 0.7612 0.6143
vn 0.7655 0.2110 0.6078
vn 0.6903 0.7235 0.0000
vn 0.0000 -0.7075 0.7067
vn 0.0000 -0.7075 -0.7067
vn 0.0002 -1.0000 0.0000
vn -0.7399 0.2763 0.6134
vn -0.7399 0.2763 -0.6134
vn -0.9896 -0.1436 -0.0000
vn -0.0004 0.6476 -0.7620
vn 0.2078 0.7612 -0.6143
vn -0.0002 -0.0005 -1.0000
vn 0.7655 0.2110 -0.6078
vn 0.9636 -0.2674 0.0000
vn 0.4873 -0.6410 0.5929
vn -0.0002 -0.0005 1.0000
vn -0.5306 -0.6132 0.5852
vn 0.0002 -0.0006 1.0000
vn -0.1883 0.7631 -0.6182
vn 0.0002 -0.0006 -1.0000
vn -0.5306 -0.6132 -0.5852
vn -0.0001 -1.0000 -0.0000
vn -0.1883 0.7631 0.6182
vn -0.0004 0.6476 0.7620
vn 0.2257 0.9742 -0.0000
vn -0.2268 0.9739 0.0000
vn -0.6530 0.7574 -0.0000
vn -0.2080 -0.7613 -0.6141
vn -0.2080 -0.7613 0.6141
vn -0.6904 -0.7234 -0.0000
vn -0.7657 -0.2110 -0.6077
vn 0.4873 -0.6410 -0.5929
usemtl Material.003
s 1
f 1//1 2//2 3//3
f 4//4 5//5 6//6
f 7//7 8//8 9//9
f 10//10 11//11 12//12
f 1//1 13//13 14//14
f 5//5 4//4 15//14
f 16//15 17//16 18//9
f 5//5 1//1 19//3
f 20//17 21//18 22//19
f 13//13 7//7 23//20
f 4//4 16//15 24//21
f 25//22 26//23 27//24
f 28//25 29//26 30//27
f 31//28 32//29 33//30
f 34//31 35//32 36//33
f 37//34 26//23 38//35
f 28//25 39//36 40//37
f 41//38 28//25 42//39
f 32//29 43//40 44//41
f 41//38 45//42 46//43
f 47//44 48//45 49//46
f 48//45 25//22 50//47
f 31//28 47//44 51//48
f 52//49 53//50 54//51
f 53//50 10//10 54//51
f 10//10 55//52 54//51
f 55//52 52//49 54//51
f 2//2 11//11 3//3
f 11//11 8//8 3//3
f 8//8 1//1 3//3
f 5//5 17//16 6//6
f 17//16 16//15 6//6
f 16//15 4//4 6//6
f 8//8 11//11 9//9
f 11//11 10//10 9//9
f 10//10 53//50 9//9
f 53//50 7//7 9//9
f 11//11 2//2 12//12
f 2//2 55//52 12//12
f 55//52 10//10 12//12
f 13//13 52//49 14//14
f 52//49 55//52 14//14
f 55//52 2//2 14//14
f 2//2 1//1 14//14
f 4//4 20//17 15//14
f 20//17 13//13 15//14
f 13//13 1//1 15//14
f 1//1 5//5 15//14
f 17//16 8//8 18//9
f 8//8 7//7 18//9
f 7//7 21//18 18//9
f 21//18 16//15 18//9
f 1//1 8//8 19//3
f 8//8 17//16 19//3
f 17//16 5//5 19//3
f 21//18 7//7 22//19
f 7//7 13//13 22//19
f 13//13 20//17 22//19
f 7//7 53//50 23//20
f 53//50 52//49 23//20
f 52//49 13//13 23//20
f 16//15 21//18 24//21
f 21//18 20//17 24//21
f 20//17 4//4 24//21
f 26//23 37//34 27//24
f 37//34 35//32 27//24
f 35//32 25//22 27//24
f 29//26 56//53 30//27
f 56//53 39//36 30//27
f 39//36 28//25 30//27
f 32//29 45//42 33//30
f 45//42 41//38 33//30
f 41//38 31//28 33//30
f 35//32 37//34 36//33
f 37//34 56//53 36//33
f 56//53 29//26 36//33
f 29//26 34//31 36//33
f 26//23 39//36 38//35
f 39//36 56//53 38//35
f 56//53 37//34 38//35
f 39//36 26//23 40//37
f 26//23 25//22 40//37
f 25//22 48//45 40//37
f 48//45 28//25 40//37
f 28//25 48//45 42//39
f 48//45 47//44 42//39
f 47//44 31//28 42//39
f 31//28 41//38 42//39
f 43//40 34//31 44//41
f 34//31 29//26 44//41
f 29//26 45//42 44//41
f 45//42 32//29 44//41
f 45//42 29//26 46//43
f 29//26 28//25 46//43
f 28//25 41//38 46//43
f 48//45 34//31 49//46
f 34//31 43//40 49//46
f 43//40 47//44 49//46
f 25//22 35//32 50//47
f 35//32 34//31 50//47
f 34//31 48//45 50//47
f 47//44 43//40 51//48
f 43//40 32//29 51//48
f 32//29 31//28 51//48
o l_chest
v -0.700000 4.000000 0.227824
v -0.700000 4.000000 0.455647
v -1.399999 4.000000 0.455647
v -1.399999 4.000000 0.227824
v -0.700000 8.000000 0.227828
v -1.400000 8.000000 0.227828
v -1.400000 8.000000 0.455651
v -0.700000 8.000000 0.455651
v 1.399999 7.500000 0.227828
v 1.399999 8.000000 0.227829
v 1.399998 8.000000 0.455651
v 1.399998 7.500000 0.455651
v -0.700000 7.500000 0.455651
v -1.400000 7.500000 0.455651
v -1.399999 7.500000 -0.227818
v -1.399999 8.000000 -0.227818
v -1.399999 8.000000 -0.455641
v -1.399999 7.500000 -0.455641
v -0.699999 4.500000 -0.455645
v -0.700000 4.000000 -0.455645
v -1.399999 4.000000 -0.455645
v -1.399999 4.500000 -0.455645
v -0.699999 6.500000 -0.455642
v -0.699999 6.000000 -0.455643
v -1.399999 6.000000 -0.455643
v -1.399999 6.500000 -0.455642
v -1.399999 5.500000 -0.227821
v -1.399999 6.000000 -0.227820
v -1.399999 5.500000 -0.455644
v -0.700000 5.500000 0.455648
v -0.700000 6.000000 0.455649
v -1.400000 6.000000 0.455649
v -1.399999 5.500000 0.455648
v 1.399999 5.500000 0.227825
v 1.399999 6.000000 0.227826
v 1.399999 6.000000 0.455649
v 1.399999 5.500000 0.455648
v 1.399999 4.500000 0.227824
v 1.399999 5.000000 0.227825
v 1.399999 5.000000 0.455648
v 1.399999 4.500000 0.455647
v 1.399999 4.500000 -0.227822
v 1.399999 5.000000 -0.227821
v 1.399999 5.000000 0.000002
v 1.399999 4.500000 0.000001
v 1.399999 5.500000 -0.227820
v 1.399999 6.000000 -0.227820
v 1.399999 6.000000 0.000003
v 1.399999 5.500000 0.000003
v -0.700000 4.500000 0.455647
v -0.700000 5.000000 0.455648
v -1.399999 5.000000 0.455648
v -1.399999 4.500000 0.455647
v 0.699999 4.500000 0.455647
v 0.699999 5.000000 0.455648
v 0.000000 5.000000 0.455648
v 0.000000 4.500000 0.455647
v 0.699999 5.500000 0.455648
v 0.699999 6.000000 0.455649
v 0.000000 6.000000 0.455649
v 0.000000 5.500000 0.455648
v -1.399999 4.500000 -0.227822
v -1.399999 5.000000 -0.227821
v -1.399999 5.000000 -0.455644
v -1.399999 4.500000 0.227824
v -1.399999 5.000000 0.227825
v -1.399999 5.000000 0.000002
v -1.399999 4.500000 0.000001
v -1.399999 5.500000 0.227825
v -1.399999 6.000000 0.227826
v -1.399999 6.000000 0.000003
v -1.399999 5.500000 0.000002
v -0.699999 7.500000 -0.455641
v -0.699999 7.000000 -0.455642
v -1.399999 7.000000 -0.455642
v 0.700000 7.500000 -0.455641
v 0.700000 7.000000 -0.455641
v 0.000000 7.000000 -0.455641
v 0.000000 7.500000 -0.455641
v 0.700000 6.500000 -0.455642
v 0.700000 6.000000 -0.455643
v 0.000000 6.000000 -0.455643
v 0.000000 6.500000 -0.455642
v -0.699999 5.500000 -0.455643
v -0.699999 5.000000 -0.455644
v 0.700000 5.500000 -0.455643
v 0.700000 5.000000 -0.455644
v 0.000000 5.000000 -0.455644
v 0.000000 5.500000 -0.455643
v 0.700000 4.500000 -0.455645
v 0.700000 4.000000 -0.455645
v 0.000000 4.000000 -0.455645
v 0.000000 4.500000 -0.455645
v -1.399999 6.500000 -0.227819
v -1.399999 7.000000 -0.227819
v -1.400000 6.500000 0.227827
v -1.400000 7.000000 0.227827
v -1.399999 7.000000 0.000004
v -1.399999 6.500000 0.000004
v -1.400000 7.500000 0.227828
v -1.400000 8.000000 0.000005
v -1.400000 7.500000 0.000005
v -0.700000 6.500000 0.455649
v -0.700000 7.000000 0.455650
v -1.400000 7.000000 0.455650
v -1.400000 6.500000 0.455649
v 0.699999 6.500000 0.455649
v 0.699999 7.000000 0.455650
v -0.000001 7.000000 0.455650
v -0.000001 6.500000 0.455649
v 0.699999 7.500000 0.455651
v 0.699999 8.000000 0.455651
v -0.000001 8.000000 0.455651
v -0.000001 7.500000 0.455651
v 1.399999 6.500000 0.227827
v 1.399999 7.000000 0.227827
v 1.399998 7.000000 0.455650
v 1.399998 6.500000 0.455649
v 1.399999 6.500000 -0.227819
v 1.399999 7.000000 -0.227818
v 1.399999 7.000000 0.000005
v 1.399999 6.500000 0.000004
v 1.400000 7.500000 -0.227818
v 1.400000 8.000000 -0.227817
v 1.399999 8.000000 0.000006
v 1.399999 7.500000 0.000005
v 0.699999 8.000000 0.227829
v -0.000001 8.000000 0.227828
v 0.700000 8.000000 -0.227817
v 0.000000 8.000000 -0.227817
v 0.000000 8.000000 0.000006
v 0.699999 8.000000 0.000006
v -0.700000 8.000000 -0.227817
v -0.700000 8.000000 0.000005
v -0.700000 4.000000 -0.227822
v -0.700000 4.000000 0.000001
v -1.399999 4.000000 0.000001
v -1.399999 4.000000 -0.227822
v 0.700000 4.000000 -0.227822
v 0.700000 4.000000 0.000001
v 0.000000 4.000000 0.000001
v 0.000000 4.000000 -0.227822
v 0.700000 4.000000 0.227824
v 0.700000 4.000000 0.455647
v 0.000000 4.000000 0.455647
v 0.000000 4.000000 0.227824
v 1.399999 4.000000 0.000001
v 1.399999 4.000000 0.227824
v 1.399999 4.000000 0.455647
v 1.399999 4.000000 -0.455645
v 1.399999 4.000000 -0.227822
v 0.000000 8.000000 -0.455640
v -0.699999 8.000000 -0.455640
v 1.400000 8.000000 -0.455640
v 0.700000 8.000000 -0.455640
v 1.400000 7.000000 -0.455641
v 1.400000 7.500000 -0.455640
v 1.400000 6.000000 -0.455643
v 1.400000 6.500000 -0.455642
v 1.399999 5.000000 -0.455644
v 1.399999 4.500000 -0.455645
v 1.399999 5.500000 -0.455643
v -1.399999 6.250000 -0.455642
v 0.700000 6.250000 -0.455642
v 1.399998 6.250000 0.455649
v -1.400000 6.250000 0.455649
v 1.399999 6.250000 0.000004
v -0.000000 6.250000 0.455649
v -0.699999 6.250000 -0.455642
v 1.399999 6.250000 -0.227819
v -1.399999 6.250000 -0.227819
v 1.400000 6.250000 -0.455642
v 1.399999 6.250000 0.227827
v 0.000000 6.250000 -0.455642
v 0.699999 6.250000 0.455649
v -1.399999 6.250000 0.227827
v -1.399999 6.250000 0.000004
v -0.700000 6.250000 0.455649
vn 0.0000 -1.0000 0.0000
vn 0.0000 1.0000 0.0000
vn 1.0000 0.0000 0.0000
vn 0.0000 -0.0000 1.0000
vn -1.0000 -0.0000 -0.0000
vn 0.0000 0.0000 -1.0000
usemtl Material.058
s 1
f 57//54 58//54 59//54 60//54
f 61//55 62//55 63//55 64//55
f 65//56 66//56 67//56 68//56
f 69//57 64//57 63//57 70//57
f 71//58 72//58 73//58 74//58
f 75//59 76//59 77//59 78//59
f 225//59 80//59 81//59 219//59
f 83//58 84//58 81//58 85//58
f 86//57 87//57 88//57 89//57
f 90//56 91//56 92//56 93//56
f 94//56 95//56 96//56 97//56
f 98//56 99//56 100//56 101//56
f 102//56 103//56 104//56 105//56
f 106//57 107//57 108//57 109//57
f 110//57 111//57 112//57 113//57
f 114//57 115//57 116//57 117//57
f 118//58 119//58 120//58 78//58
f 121//58 122//58 123//58 124//58
f 125//58 126//58 127//58 128//58
f 129//59 130//59 131//59 74//59
f 132//59 133//59 134//59 135//59
f 220//59 137//59 138//59 230//59
f 140//59 141//59 120//59 85//59
f 142//59 143//59 144//59 145//59
f 146//59 147//59 148//59 149//59
f 150//58 151//58 131//58 82//58
f 152//58 153//58 154//58 155//58
f 156//58 62//58 157//58 158//58
f 159//57 160//57 161//57 162//57
f 163//57 164//57 165//57 166//57
f 167//57 168//57 169//57 170//57
f 171//56 172//56 173//56 174//56
f 175//56 176//56 177//56 178//56
f 179//56 180//56 181//56 182//56
f 183//55 184//55 169//55 168//55
f 185//55 186//55 187//55 188//55
f 189//55 72//55 157//55 190//55
f 191//54 192//54 193//54 194//54
f 195//54 196//54 197//54 198//54
f 199//54 200//54 201//54 202//54
f 196//54 199//54 202//54 197//54
f 203//54 204//54 199//54 196//54
f 204//54 205//54 200//54 199//54
f 147//54 195//54 198//54 148//54
f 206//54 207//54 195//54 147//54
f 207//54 203//54 196//54 195//54
f 76//54 191//54 194//54 77//54
f 148//54 198//54 191//54 76//54
f 198//54 197//54 192//54 191//54
f 186//55 189//55 190//55 187//55
f 208//55 209//55 189//55 186//55
f 209//55 73//55 72//55 189//55
f 180//55 185//55 188//55 181//55
f 210//55 211//55 185//55 180//55
f 211//55 208//55 186//55 185//55
f 66//55 183//55 168//55 67//55
f 181//55 188//55 183//55 66//55
f 188//55 187//55 184//55 183//55
f 176//56 179//56 182//56 177//56
f 212//56 213//56 179//56 176//56
f 213//56 210//56 180//56 179//56
f 226//56 175//56 178//56 223//56
f 228//56 215//56 175//56 226//56
f 215//56 212//56 176//56 175//56
f 229//56 171//56 174//56 221//56
f 223//56 178//56 171//56 229//56
f 178//56 177//56 172//56 171//56
f 164//57 167//57 170//57 165//57
f 173//57 68//57 167//57 164//57
f 68//57 67//57 168//57 167//57
f 231//57 163//57 166//57 224//57
f 221//57 174//57 163//57 231//57
f 174//57 173//57 164//57 163//57
f 234//57 159//57 162//57 222//57
f 224//57 166//57 159//57 234//57
f 166//57 165//57 160//57 159//57
f 153//58 156//58 158//58 154//58
f 161//58 70//58 156//58 153//58
f 70//58 63//58 62//58 156//58
f 232//58 152//58 155//58 233//58
f 222//58 162//58 152//58 232//58
f 162//58 161//58 153//58 152//58
f 227//58 150//58 82//58 219//58
f 233//58 155//58 150//58 227//58
f 155//58 154//58 151//58 150//58
f 143//59 146//59 149//59 144//59
f 216//59 217//59 146//59 143//59
f 217//59 206//59 147//59 146//59
f 137//59 142//59 145//59 138//59
f 214//59 218//59 142//59 137//59
f 218//59 216//59 143//59 142//59
f 80//59 140//59 85//59 81//59
f 138//59 145//59 140//59 80//59
f 145//59 144//59 141//59 140//59
f 133//59 136//59 139//59 134//59
f 212//59 215//59 136//59 133//59
f 228//59 214//59 137//59 220//59
f 211//59 132//59 135//59 208//59
f 210//59 213//59 132//59 211//59
f 213//59 212//59 133//59 132//59
f 209//59 129//59 74//59 73//59
f 208//59 135//59 129//59 209//59
f 135//59 134//59 130//59 129//59
f 122//58 125//58 128//58 123//58
f 108//58 89//58 125//58 122//58
f 89//58 88//58 126//58 125//58
f 60//58 121//58 124//58 193//58
f 59//58 109//58 121//58 60//58
f 109//58 108//58 122//58 121//58
f 194//58 118//58 78//58 77//58
f 193//58 124//58 118//58 194//58
f 124//58 123//58 119//58 118//58
f 111//57 114//57 117//57 112//57
f 96//57 93//57 114//57 111//57
f 93//57 92//57 115//57 114//57
f 200//57 110//57 113//57 201//57
f 205//57 97//57 110//57 200//57
f 97//57 96//57 111//57 110//57
f 58//57 106//57 109//57 59//57
f 201//57 113//57 106//57 58//57
f 113//57 112//57 107//57 106//57
f 99//56 102//56 105//56 100//56
f 216//56 218//56 102//56 99//56
f 218//56 214//56 103//56 102//56
f 207//56 98//56 101//56 203//56
f 206//56 217//56 98//56 207//56
f 217//56 216//56 99//56 98//56
f 204//56 94//56 97//56 205//56
f 203//56 101//56 94//56 204//56
f 101//56 100//56 95//56 94//56
f 95//56 90//56 93//56 96//56
f 100//56 105//56 90//56 95//56
f 105//56 104//56 91//56 90//56
f 107//57 86//57 89//57 108//57
f 112//57 117//57 86//57 107//57
f 117//57 116//57 87//57 86//57
f 119//58 83//58 85//58 120//58
f 123//58 128//58 83//58 119//58
f 128//58 127//58 84//58 83//58
f 130//59 79//59 82//59 131//59
f 134//59 139//59 79//59 130//59
f 230//59 138//59 80//59 225//59
f 141//59 75//59 78//59 120//59
f 144//59 149//59 75//59 141//59
f 149//59 148//59 76//59 75//59
f 151//58 71//58 74//58 131//58
f 154//58 158//58 71//58 151//58
f 158//58 157//58 72//58 71//58
f 160//57 69//57 70//57 161//57
f 165//57 170//57 69//57 160//57
f 170//57 169//57 64//57 69//57
f 172//56 65//56 68//56 173//56
f 177//56 182//56 65//56 172//56
f 182//56 181//56 66//56 65//56
f 184//55 61//55 64//55 169//55
f 187//55 190//55 61//55 184//55
f 190//55 157//55 62//55 61//55
f 192//54 57//54 60//54 193//54
f 197//54 202//54 57//54 192//54
f 202//54 201//54 58//54 57//54
f 139//59 230//59 225//59 79//59
f 215//59 228//59 220//59 136//59
f 127//58 233//58 227//58 84//58
f 84//58 227//58 219//58 81//58
f 88//58 222//58 232//58 126//58
f 126//58 232//58 233//58 127//58
f 116//57 224//57 234//57 87//57
f 87//57 234//57 222//57 88//57
f 92//57 221//57 231//57 115//57
f 115//57 231//57 224//57 116//57
f 104//56 223//56 229//56 91//56
f 91//56 229//56 221//56 92//56
f 214//56 228//56 226//56 103//56
f 103//56 226//56 223//56 104//56
f 136//59 220//59 230//59 139//59
f 79//59 225//59 219//59 82//59
o marker_chest
v 0.000000 7.000000 0.500005
v 0.000000 7.000000 0.500005
v 0.000000 7.000000 0.500005
v 0.000000 7.000000 0.500005
vn 0.0000 0.0000 1.0000
usemtl None.022
s off
f 235//60 236//60 237//60 238//60
