# Blender v2.78 (sub 0) OBJ File: ''
# www.blender.org
mtllib r_hand_u3.mtl
o Cube_Cube.000
v -0.500000 4.687500 -0.499999
v -0.500000 4.687500 0.500001
v -0.500000 5.000000 0.500001
v -0.500000 5.000000 -0.499999
v 0.500000 5.000000 0.500001
v 0.500000 5.000000 -0.499999
v 0.500000 0.625000 -0.500000
v 0.500000 0.625000 0.500000
v 0.500000 -0.000000 0.500000
v 0.500000 0.000000 -0.500000
v -0.500000 -0.000000 0.500000
v -0.500000 0.000000 -0.500000
v -0.500000 0.625000 -0.500000
v -0.500000 0.625000 0.500000
v 0.500000 2.812500 0.500000
v -0.500000 2.812500 0.500000
v -0.500000 2.500000 0.500000
v 0.500000 2.500000 0.500000
v -0.500000 2.812500 -0.500000
v 0.500000 2.812500 -0.500000
v 0.500000 2.500000 -0.500000
v -0.500000 2.500000 -0.500000
v -0.500000 2.187500 -0.500000
v -0.500000 2.187500 0.500000
v 0.500000 4.062500 -0.499999
v 0.500000 4.062500 0.500001
v 0.500000 3.750000 0.500001
v 0.500000 3.750000 -0.499999
v -0.500000 4.062500 -0.499999
v -0.500000 3.750000 -0.499999
v -0.500000 4.062500 0.500001
v -0.500000 3.750000 0.500001
v -0.500000 3.437500 -0.499999
v -0.500000 3.437500 0.500001
v 0.500000 4.687500 0.500001
v -0.500000 4.375000 0.500001
v 0.500000 4.375000 0.500001
v 0.500000 4.687500 -0.499999
v 0.500000 4.375000 -0.499999
v -0.500000 4.375000 -0.499999
v -0.500000 3.125000 0.500001
v -0.500000 3.125000 -0.499999
v 0.500000 3.437500 -0.499999
v 0.500000 3.437500 0.500001
v 0.500000 3.125000 0.500001
v 0.500000 3.125000 -0.499999
v -0.500000 0.937500 -0.500000
v -0.500000 0.937500 0.500000
v -0.500000 1.250000 0.500000
v -0.500000 1.250000 -0.500000
v 0.500000 1.562500 0.500000
v -0.500000 1.562500 0.500000
v 0.500000 1.250000 0.500000
v -0.500000 1.562500 -0.500000
v 0.500000 1.562500 -0.500000
v 0.500000 1.250000 -0.500000
v 0.500000 2.187500 -0.500000
v 0.500000 2.187500 0.500000
v 0.500000 1.875000 0.500000
v 0.500000 1.875000 -0.500000
v -0.500000 1.875000 -0.500000
v -0.500000 1.875000 0.500000
v 0.500000 0.937500 0.500000
v 0.500000 0.937500 -0.500000
v 0.500000 0.312500 -0.500000
v -0.500000 0.312500 -0.500000
v 0.500000 0.312500 0.500000
v -0.500000 0.312500 0.500000
v 0.500000 2.031250 0.500000
v -0.500000 2.031250 0.500000
v -0.500000 2.031250 -0.500000
v 0.500000 2.031250 -0.500000
v 0.500000 4.218750 -0.499999
v 0.500000 4.218750 0.500001
v -0.500000 4.218750 0.500001
v -0.500000 4.218750 -0.499999
vn -1.0000 0.0000 0.0000
vn 0.0000 1.0000 0.0000
vn 1.0000 0.0000 0.0000
vn 0.0000 -1.0000 -0.0000
vn 0.0000 0.0000 -1.0000
vn 0.0000 -0.0000 1.0000
usemtl None.004
s 1
f 1//1 2//1 3//1 4//1
f 4//2 3//2 5//2 6//2
f 65//3 67//3 9//3 10//3
f 10//4 9//4 11//4 12//4
f 66//5 65//5 10//5 12//5
f 67//6 68//6 11//6 9//6
f 15//6 16//6 17//6 18//6
f 19//5 20//5 21//5 22//5
f 20//3 15//3 18//3 21//3
f 23//1 24//1 17//1 22//1
f 25//3 26//3 27//3 28//3
f 29//5 25//5 28//5 30//5
f 26//6 31//6 32//6 27//6
f 33//1 34//1 32//1 30//1
f 35//6 2//6 36//6 37//6
f 1//5 38//5 39//5 40//5
f 38//3 35//3 37//3 39//3
f 76//1 75//1 36//1 40//1
f 19//1 16//1 41//1 42//1
f 43//3 44//3 45//3 46//3
f 33//5 43//5 46//5 42//5
f 44//6 34//6 41//6 45//6
f 47//1 48//1 49//1 50//1
f 51//6 52//6 49//6 53//6
f 54//5 55//5 56//5 50//5
f 55//3 51//3 53//3 56//3
f 72//3 69//3 59//3 60//3
f 71//5 72//5 60//5 61//5
f 69//6 70//6 62//6 59//6
f 54//1 52//1 62//1 61//1
f 66//1 68//1 14//1 13//1
f 63//6 48//6 14//6 8//6
f 47//5 64//5 7//5 13//5
f 64//3 63//3 8//3 7//3
f 22//1 17//1 16//1 19//1
f 46//3 45//3 15//3 20//3
f 42//5 46//5 20//5 19//5
f 45//6 41//6 16//6 15//6
f 6//3 5//3 35//3 38//3
f 4//5 6//5 38//5 1//5
f 5//6 3//6 2//6 35//6
f 40//1 36//1 2//1 1//1
f 30//1 32//1 31//1 29//1
f 74//6 75//6 31//6 26//6
f 76//5 73//5 25//5 29//5
f 73//3 74//3 26//3 25//3
f 27//6 32//6 34//6 44//6
f 30//5 28//5 43//5 33//5
f 28//3 27//3 44//3 43//3
f 42//1 41//1 34//1 33//1
f 18//6 17//6 24//6 58//6
f 22//5 21//5 57//5 23//5
f 21//3 18//3 58//3 57//3
f 71//1 70//1 24//1 23//1
f 50//1 49//1 52//1 54//1
f 60//3 59//3 51//3 55//3
f 61//5 60//5 55//5 54//5
f 59//6 62//6 52//6 51//6
f 56//3 53//3 63//3 64//3
f 50//5 56//5 64//5 47//5
f 53//6 49//6 48//6 63//6
f 13//1 14//1 48//1 47//1
f 12//1 11//1 68//1 66//1
f 8//6 14//6 68//6 67//6
f 13//5 7//5 65//5 66//5
f 7//3 8//3 67//3 65//3
f 61//1 62//1 70//1 71//1
f 58//6 24//6 70//6 69//6
f 23//5 57//5 72//5 71//5
f 57//3 58//3 69//3 72//3
f 39//3 37//3 74//3 73//3
f 40//5 39//5 73//5 76//5
f 37//6 36//6 75//6 74//6
f 29//1 31//1 75//1 76//1
