# Blender v2.78 (sub 0) OBJ File: ''
# www.blender.org
mtllib r_hand_r.mtl
o forearm.008
v 0.500000 0.000000 -0.500002
v 0.500000 -0.000000 0.499998
v -0.500000 -0.000000 0.499998
v -0.500000 0.000000 -0.500002
v 0.500000 4.000000 -0.499991
v -0.500000 4.000000 -0.499992
v -0.500000 4.000000 0.500008
v 0.499999 4.000000 0.500008
vn 0.0000 -1.0000 -0.0000
vn 0.0000 1.0000 0.0000
vn 1.0000 0.0000 0.0000
vn 0.0000 -0.0000 1.0000
vn -1.0000 0.0000 0.0000
vn 0.0000 0.0000 -1.0000
usemtl Material.016
s 1
f 1//1 2//1 3//1 4//1
f 5//2 6//2 7//2 8//2
f 1//3 5//3 8//3 2//3
f 2//4 8//4 7//4 3//4
f 3//5 7//5 6//5 4//5
f 5//6 1//6 4//6 6//6
o shoulder.006
v 0.500000 4.000000 -0.499994
v 0.500000 4.000000 0.500006
v -0.500000 4.000000 0.500006
v -0.500000 4.000000 -0.499994
v 0.500000 5.000000 -0.499993
v -0.500000 5.000000 -0.499994
v -0.500000 5.000000 0.500006
v 0.499999 5.000000 0.500006
vn 0.0000 -1.0000 0.0000
vn 0.0000 1.0000 0.0000
vn 1.0000 0.0000 0.0000
vn 0.0000 -0.0000 1.0000
vn -1.0000 0.0000 0.0000
vn 0.0000 0.0000 -1.0000
usemtl Material.017
s 1
f 9//7 10//7 11//7 12//7
f 13//8 14//8 15//8 16//8
f 9//9 13//9 16//9 10//9
f 10//10 16//10 15//10 11//10
f 11//11 15//11 14//11 12//11
f 13//12 9//12 12//12 14//12
o marker_shoulder_r.005
v 0.500000 5.000000 0.000002
v 0.500000 5.000000 0.000002
v 0.500000 5.000000 0.000002
v 0.500000 5.000000 0.000002
vn 0.0000 0.0000 1.0000
usemtl None.016
s off
f 17//13 18//13 19//13 20//13
o marker_arm_r.009
v -0.500000 2.500000 0.500020
v -0.500000 2.500000 0.500020
v -0.500000 2.500000 0.500020
v -0.500000 2.500000 0.500020
vn 0.0000 0.0000 1.0000
usemtl None.017
s off
f 21//14 22//14 23//14 24//14
