# Blender v2.78 (sub 0) OBJ File: ''
# www.blender.org
mtllib r_hand_u4.mtl
o Cube_Cube.000
v -0.500000 4.687500 -0.499998
v -0.500000 4.687500 0.500002
v -0.500000 5.000000 0.500002
v -0.500000 5.000000 -0.499998
v 0.500000 5.000000 0.500002
v 0.500000 5.000000 -0.499998
v 0.500000 0.312500 -0.500000
v 0.500000 0.312500 0.500000
v 0.500000 -0.000000 0.500000
v 0.500000 0.000000 -0.500000
v -0.500000 -0.000000 0.500000
v -0.500000 0.000000 -0.500000
v -0.500000 0.312500 -0.500000
v -0.500000 0.312500 0.500000
v 0.500000 2.812500 0.500000
v -0.500000 2.812500 0.500000
v -0.500000 2.500000 0.500000
v 0.500000 2.500000 0.500000
v -0.500000 2.812500 -0.500000
v 0.500000 2.812500 -0.500000
v 0.500000 2.500000 -0.500000
v -0.500000 2.500000 -0.500000
v -0.500000 2.187500 -0.500000
v -0.500000 2.187500 0.500000
v 0.500000 4.062500 -0.499998
v 0.500000 4.062500 0.500002
v 0.500000 3.750000 0.500002
v 0.500000 3.750000 -0.499998
v -0.500000 4.062500 -0.499998
v -0.500000 3.750000 -0.499998
v -0.500000 4.062500 0.500002
v -0.500000 3.750000 0.500002
v -0.500000 3.437500 -0.499998
v -0.500000 3.437500 0.500002
v 0.500000 4.687500 0.500002
v -0.500000 4.375000 0.500002
v 0.500000 4.375000 0.500002
v 0.500000 4.687500 -0.499998
v 0.500000 4.375000 -0.499998
v -0.500000 4.375000 -0.499998
v -0.500000 4.218750 -0.499998
v -0.500000 4.218750 0.500002
v -0.500000 3.125000 0.500002
v -0.500000 3.125000 -0.499998
v 0.500000 3.437500 -0.499998
v 0.500000 3.437500 0.500002
v 0.500000 3.125000 0.500002
v 0.500000 3.125000 -0.499998
v -0.500000 0.937500 -0.500000
v -0.500000 0.937500 0.500000
v -0.500000 1.250000 0.500000
v -0.500000 1.250000 -0.500000
v 0.500000 1.562500 0.500000
v -0.500000 1.562500 0.500000
v 0.500000 1.250000 0.500000
v -0.500000 1.562500 -0.500000
v 0.500000 1.562500 -0.500000
v 0.500000 1.250000 -0.500000
v 0.500000 2.031250 -0.500000
v 0.500000 2.031250 0.500000
v 0.500000 1.875000 0.500000
v 0.500000 1.875000 -0.500000
v -0.500000 2.031250 -0.500000
v -0.500000 1.875000 -0.500000
v -0.500000 2.031250 0.500000
v -0.500000 1.875000 0.500000
v -0.500000 0.625000 0.500000
v -0.500000 0.625000 -0.500000
v 0.500000 0.937500 0.500000
v 0.500000 0.625000 0.500000
v 0.500000 0.937500 -0.500000
v 0.500000 0.625000 -0.500000
v 0.500000 4.218750 0.500002
v 0.500000 4.218750 -0.499998
v 0.500000 2.187500 0.500000
v 0.500000 2.187500 -0.500000
v -0.500000 2.343750 0.500000
v 0.500000 2.343750 0.500000
v -0.500000 2.343750 -0.500000
v 0.500000 2.343750 -0.500000
v -0.500000 2.656250 -0.500000
v -0.500000 2.656250 0.500000
v 0.500000 2.656250 0.500000
v 0.500000 2.656250 -0.500000
v -0.500000 2.968750 0.500001
v 0.500000 2.968750 -0.499999
v -0.500000 2.968750 -0.499999
v 0.500000 2.968750 0.500001
v 0.500000 3.281250 0.500002
v -0.500000 3.281250 0.500002
v 0.500000 3.281250 -0.499998
v -0.500000 3.281250 -0.499998
v -0.500000 3.593750 -0.499998
v 0.500000 3.593750 -0.499998
v -0.500000 3.593750 0.500002
v 0.500000 3.593750 0.500002
v 0.500000 3.906250 0.500002
v 0.500000 3.906250 -0.499998
v -0.500000 3.906250 -0.499998
v -0.500000 3.906250 0.500002
v -0.500000 4.531250 -0.499998
v -0.500000 4.531250 0.500002
v 0.500000 4.531250 -0.499998
v 0.500000 4.531250 0.500002
v 0.500000 4.843750 -0.499998
v -0.500000 4.843750 -0.499998
v 0.500000 4.843750 0.500002
v -0.500000 4.843750 0.500002
v -0.500000 1.718750 -0.500000
v 0.500000 1.718750 -0.500000
v -0.500000 1.718750 0.500000
v 0.500000 1.718750 0.500000
v -0.500000 1.406250 0.500000
v -0.500000 1.406250 -0.500000
v 0.500000 1.406250 0.500000
v 0.500000 1.406250 -0.500000
v -0.500000 1.093750 0.500000
v 0.500000 1.093750 0.500000
v -0.500000 1.093750 -0.500000
v 0.500000 1.093750 -0.500000
v -0.500000 0.781250 0.500000
v 0.500000 0.781250 -0.500000
v -0.500000 0.781250 -0.500000
v 0.500000 0.781250 0.500000
v -0.500000 0.468750 -0.500000
v 0.500000 0.468750 0.500000
v 0.500000 0.468750 -0.500000
v -0.500000 0.468750 0.500000
v 0.500000 0.156250 -0.500000
v -0.500000 0.156250 -0.500000
v 0.500000 0.156250 0.500000
v -0.500000 0.156250 0.500000
vn -1.0000 0.0000 0.0000
vn 0.0000 1.0000 0.0000
vn 1.0000 0.0000 0.0000
vn 0.0000 -1.0000 -0.0000
vn 0.0000 0.0000 -1.0000
vn 0.0000 -0.0000 1.0000
usemtl None.004
s 1
f 106//1 108//1 3//1 4//1
f 4//2 3//2 5//2 6//2
f 129//3 131//3 9//3 10//3
f 10//4 9//4 11//4 12//4
f 130//5 129//5 10//5 12//5
f 131//6 132//6 11//6 9//6
f 83//6 82//6 17//6 18//6
f 81//5 84//5 21//5 22//5
f 84//3 83//3 18//3 21//3
f 79//1 77//1 17//1 22//1
f 98//3 97//3 27//3 28//3
f 99//5 98//5 28//5 30//5
f 97//6 100//6 32//6 27//6
f 93//1 95//1 32//1 30//1
f 104//6 102//6 36//6 37//6
f 101//5 103//5 39//5 40//5
f 103//3 104//3 37//3 39//3
f 41//1 42//1 36//1 40//1
f 87//1 85//1 43//1 44//1
f 91//3 89//3 47//3 48//3
f 92//5 91//5 48//5 44//5
f 89//6 90//6 43//6 47//6
f 119//1 117//1 51//1 52//1
f 115//6 113//6 51//6 55//6
f 114//5 116//5 58//5 52//5
f 116//3 115//3 55//3 58//3
f 59//3 60//3 61//3 62//3
f 63//5 59//5 62//5 64//5
f 60//6 65//6 66//6 61//6
f 109//1 111//1 66//1 64//1
f 125//1 128//1 67//1 68//1
f 124//6 121//6 67//6 70//6
f 123//5 122//5 72//5 68//5
f 122//3 124//3 70//3 72//3
f 81//1 82//1 16//1 19//1
f 86//3 88//3 15//3 20//3
f 87//5 86//5 20//5 19//5
f 88//6 85//6 16//6 15//6
f 105//3 107//3 35//3 38//3
f 106//5 105//5 38//5 1//5
f 107//6 108//6 2//6 35//6
f 101//1 102//1 2//1 1//1
f 99//1 100//1 31//1 29//1
f 73//6 42//6 31//6 26//6
f 41//5 74//5 25//5 29//5
f 74//3 73//3 26//3 25//3
f 96//6 95//6 34//6 46//6
f 93//5 94//5 45//5 33//5
f 94//3 96//3 46//3 45//3
f 92//1 90//1 34//1 33//1
f 78//6 77//6 24//6 75//6
f 79//5 80//5 76//5 23//5
f 80//3 78//3 75//3 76//3
f 63//1 65//1 24//1 23//1
f 114//1 113//1 54//1 56//1
f 110//3 112//3 53//3 57//3
f 109//5 110//5 57//5 56//5
f 112//6 111//6 54//6 53//6
f 120//3 118//3 69//3 71//3
f 119//5 120//5 71//5 49//5
f 118//6 117//6 50//6 69//6
f 123//1 121//1 50//1 49//1
f 130//1 132//1 14//1 13//1
f 126//6 128//6 14//6 8//6
f 125//5 127//5 7//5 13//5
f 127//3 126//3 8//3 7//3
f 64//1 66//1 65//1 63//1
f 75//6 24//6 65//6 60//6
f 23//5 76//5 59//5 63//5
f 76//3 75//3 60//3 59//3
f 39//3 37//3 73//3 74//3
f 40//5 39//5 74//5 41//5
f 37//6 36//6 42//6 73//6
f 29//1 31//1 42//1 41//1
f 21//3 18//3 78//3 80//3
f 22//5 21//5 80//5 79//5
f 18//6 17//6 77//6 78//6
f 23//1 24//1 77//1 79//1
f 22//1 17//1 82//1 81//1
f 20//3 15//3 83//3 84//3
f 19//5 20//5 84//5 81//5
f 15//6 16//6 82//6 83//6
f 47//6 43//6 85//6 88//6
f 44//5 48//5 86//5 87//5
f 48//3 47//3 88//3 86//3
f 19//1 16//1 85//1 87//1
f 44//1 43//1 90//1 92//1
f 46//6 34//6 90//6 89//6
f 33//5 45//5 91//5 92//5
f 45//3 46//3 89//3 91//3
f 28//3 27//3 96//3 94//3
f 30//5 28//5 94//5 93//5
f 27//6 32//6 95//6 96//6
f 33//1 34//1 95//1 93//1
f 30//1 32//1 100//1 99//1
f 26//6 31//6 100//6 97//6
f 29//5 25//5 98//5 99//5
f 25//3 26//3 97//3 98//3
f 40//1 36//1 102//1 101//1
f 38//3 35//3 104//3 103//3
f 1//5 38//5 103//5 101//5
f 35//6 2//6 102//6 104//6
f 5//6 3//6 108//6 107//6
f 4//5 6//5 105//5 106//5
f 6//3 5//3 107//3 105//3
f 1//1 2//1 108//1 106//1
f 61//6 66//6 111//6 112//6
f 64//5 62//5 110//5 109//5
f 62//3 61//3 112//3 110//3
f 56//1 54//1 111//1 109//1
f 52//1 51//1 113//1 114//1
f 57//3 53//3 115//3 116//3
f 56//5 57//5 116//5 114//5
f 53//6 54//6 113//6 115//6
f 55//6 51//6 117//6 118//6
f 52//5 58//5 120//5 119//5
f 58//3 55//3 118//3 120//3
f 49//1 50//1 117//1 119//1
f 68//1 67//1 121//1 123//1
f 71//3 69//3 124//3 122//3
f 49//5 71//5 122//5 123//5
f 69//6 50//6 121//6 124//6
f 72//3 70//3 126//3 127//3
f 68//5 72//5 127//5 125//5
f 70//6 67//6 128//6 126//6
f 13//1 14//1 128//1 125//1
f 12//1 11//1 132//1 130//1
f 8//6 14//6 132//6 131//6
f 13//5 7//5 129//5 130//5
f 7//3 8//3 131//3 129//3
