# Blender v2.78 (sub 0) OBJ File: ''
# www.blender.org
mtllib r_shoulder_r2.mtl
o Cube_Cube.002
v -0.501534 3.990891 0.500000
v 0.498466 4.990891 0.500000
v -0.501534 3.990891 -0.500000
v 0.498466 4.990891 -0.500000
v -0.501534 3.990891 0.500000
v -0.501534 3.990891 -0.500000
v -0.501534 4.432008 0.500000
v 0.283199 5.044708 0.500000
v -0.498302 4.599861 0.500000
v -0.478099 4.762164 0.500000
v -0.426077 4.909318 0.500000
v -0.331525 5.023279 0.500000
v -0.198090 5.087287 0.500000
v -0.043008 5.102055 0.500000
v 0.119493 5.082299 0.500000
v 0.283199 5.044708 -0.500000
v -0.501534 4.432008 -0.500000
v 0.119574 5.082284 -0.500000
v -0.042783 5.102048 -0.500000
v -0.198162 5.087269 -0.500000
v -0.331652 5.023180 -0.500000
v -0.426112 4.909254 -0.500000
v -0.478051 4.762384 -0.500000
v -0.498298 4.599942 -0.500000
v -0.132905 4.647799 0.500000
v -0.132905 4.647798 -0.500000
v -0.504350 3.993708 0.496017
v -0.504350 3.993708 -0.496017
v 0.489385 4.988376 -0.493470
v 0.489385 4.988376 0.493470
v -0.497512 3.990891 0.495978
v -0.497512 3.990891 -0.495978
v -0.496512 4.431959 0.495021
v -0.496512 4.431959 -0.495021
v 0.282028 5.039825 -0.495021
v 0.118691 5.077245 -0.495108
v 0.118611 5.077260 0.495108
v 0.282028 5.039825 0.495021
v -0.042852 5.096813 -0.495203
v -0.043077 5.096820 0.495203
v -0.196721 5.082088 -0.495295
v -0.196649 5.082106 0.495295
v -0.328292 5.018878 -0.495337
v -0.328166 5.018976 0.495337
v -0.421434 4.906599 -0.495295
v -0.421399 4.906664 0.495295
v -0.472956 4.761181 -0.495203
v -0.473003 4.760960 0.495203
v -0.493195 4.599576 -0.495108
v -0.493199 4.599495 0.495108
v -0.132905 4.647799 0.495000
v -0.132905 4.647798 -0.495000
vn -0.7071 0.7071 0.0000
vn 0.0000 0.0000 1.0000
vn 1.0000 0.0000 0.0000
vn -0.2238 -0.9746 -0.0000
vn -0.1208 -0.9927 -0.0000
vn 0.0947 -0.9955 0.0000
vn 0.4327 -0.9016 0.0000
vn 0.7697 -0.6384 -0.0000
vn 0.9428 -0.3334 -0.0000
vn 0.9923 -0.1236 0.0000
vn 0.9998 -0.0193 0.0000
vn -0.2425 -0.9701 0.0000
vn 0.0000 0.0000 -1.0000
vn 0.7074 -0.7068 0.0000
vn 0.3808 0.9246 0.0000
vn -1.0000 0.0023 0.0000
vn 0.2233 0.9747 0.0000
vn 0.1202 0.9928 0.0000
vn -0.0953 0.9954 -0.0000
vn -0.4329 0.9014 -0.0000
vn -0.7695 0.6386 0.0000
vn -0.9426 0.3339 0.0000
vn -0.9923 0.1242 -0.0000
vn -0.9998 0.0198 -0.0000
vn 0.2408 0.9706 0.0000
vn -0.0012 0.0022 1.0000
vn 0.0004 -0.0005 1.0000
vn 0.0004 -0.0006 1.0000
vn 0.0003 -0.0008 1.0000
vn 0.0004 -0.0007 1.0000
vn 0.0006 -0.0006 1.0000
vn 0.0007 -0.0006 1.0000
vn 0.0005 -0.0006 1.0000
vn 0.0059 -0.0063 1.0000
vn 0.0023 0.0002 1.0000
vn -0.0051 0.0013 -1.0000
vn 0.0023 0.0002 -1.0000
vn 0.0059 -0.0063 -1.0000
vn 0.0004 -0.0005 -1.0000
vn 0.0005 -0.0006 -1.0000
vn 0.0007 -0.0006 -1.0000
vn 0.0006 -0.0006 -1.0000
vn 0.0004 -0.0007 -1.0000
vn 0.0003 -0.0008 -1.0000
vn 0.0004 -0.0006 -1.0000
vn -0.0012 0.0022 -1.0000
vn -0.0051 0.0013 1.0000
usemtl None
s off
f 1//1 2//1 4//1 3//1
f 3//2 6//2 5//2 1//2
f 6//3 17//3 7//3 5//3
f 16//4 8//4 15//4 18//4
f 18//5 15//5 14//5 19//5
f 19//6 14//6 13//6 20//6
f 20//7 13//7 12//7 21//7
f 21//8 12//8 11//8 22//8
f 22//9 11//9 10//9 23//9
f 23//10 10//10 9//10 24//10
f 24//11 9//11 7//11 17//11
f 16//12 4//12 2//12 8//12
f 5//13 7//13 25//13
f 7//13 9//13 25//13
f 9//13 10//13 25//13
f 10//13 11//13 25//13
f 11//13 12//13 25//13
f 12//13 13//13 25//13
f 13//13 14//13 25//13
f 14//13 15//13 25//13
f 15//13 8//13 25//13
f 8//13 2//13 25//13
f 2//13 1//13 25//13
f 1//2 5//2 25//2
f 3//2 4//2 26//2
f 4//2 16//2 26//2
f 16//2 18//2 26//2
f 18//2 19//2 26//2
f 19//2 20//2 26//2
f 20//2 21//2 26//2
f 21//2 22//2 26//2
f 22//2 23//2 26//2
f 23//2 24//2 26//2
f 24//2 17//2 26//2
f 17//2 6//2 26//2
f 6//2 3//2 26//2
f 27//14 28//14 29//14 30//14
f 28//15 27//15 31//15 32//15
f 32//16 31//16 33//16 34//16
f 35//17 36//17 37//17 38//17
f 36//18 39//18 40//18 37//18
f 39//19 41//19 42//19 40//19
f 41//20 43//20 44//20 42//20
f 43//21 45//21 46//21 44//21
f 45//22 47//22 48//22 46//22
f 47//23 49//23 50//23 48//23
f 49//24 34//24 33//24 50//24
f 35//25 38//25 30//25 29//25
f 31//26 51//26 33//26
f 33//27 51//27 50//27
f 50//28 51//28 48//28
f 48//29 51//29 46//29
f 46//30 51//30 44//30
f 44//31 51//31 42//31
f 42//32 51//32 40//32
f 40//33 51//33 37//33
f 37//27 51//27 38//27
f 38//34 51//34 30//34
f 30//35 51//35 27//35
f 27//36 51//36 31//36
f 28//37 52//37 29//37
f 29//38 52//38 35//38
f 35//39 52//39 36//39
f 36//40 52//40 39//40
f 39//41 52//41 41//41
f 41//42 52//42 43//42
f 43//43 52//43 45//43
f 45//44 52//44 47//44
f 47//45 52//45 49//45
f 49//39 52//39 34//39
f 34//46 52//46 32//46
f 32//47 52//47 28//47
