# Blender v2.78 (sub 0) OBJ File: ''
# www.blender.org
mtllib untitled.mtl
o Cube_Cube.005
v -0.250000 0.000000 0.250000
v -0.250000 4.000000 0.250000
v -0.250000 0.000000 -0.250000
v -0.250000 4.000000 -0.250000
v 0.250000 0.000000 0.250000
v 0.250000 4.000000 0.250000
v 0.250000 0.000000 -0.250000
v 0.250000 4.000000 -0.250000
v -0.250000 2.000000 0.250000
v -0.250000 2.000000 -0.250000
v 0.250000 2.000000 -0.250000
v 0.250000 2.000000 0.250000
v -0.250000 0.000000 0.000000
v -0.250000 3.000000 0.250000
v -0.250000 4.000000 0.000000
v -0.250000 1.000000 -0.250000
v 0.000000 0.000000 -0.250000
v 0.000000 4.000000 -0.250000
v 0.250000 1.000000 -0.250000
v 0.250000 0.000000 0.000000
v 0.250000 4.000000 0.000000
v 0.250000 1.000000 0.250000
v 0.000000 0.000000 0.250000
v 0.000000 4.000000 0.250000
v -0.250000 1.000000 0.250000
v -0.250000 3.000000 -0.250000
v 0.250000 3.000000 -0.250000
v 0.250000 3.000000 0.250000
v 0.000000 2.000000 0.250000
v 0.250000 2.000000 0.000000
v 0.000000 2.000000 -0.250000
v -0.250000 2.000000 0.000000
v -0.250000 1.000000 0.000000
v 0.000000 1.000000 -0.250000
v 0.250000 1.000000 0.000000
v 0.000000 1.000000 0.250000
v 0.000000 4.000000 0.000000
v 0.000000 0.000000 0.000000
v 0.000000 3.000000 0.250000
v 0.250000 3.000000 0.000000
v 0.000000 3.000000 -0.250000
v -0.250000 3.000000 0.000000
v -0.250000 0.000000 0.125000
v -0.250000 3.500000 0.250000
v -0.250000 4.000000 -0.125000
v -0.250000 0.500000 -0.250000
v -0.125000 0.000000 -0.250000
v 0.125000 4.000000 -0.250000
v 0.250000 0.500000 -0.250000
v 0.250000 0.000000 -0.125000
v 0.250000 4.000000 0.125000
v 0.250000 0.500000 0.250000
v 0.125000 0.000000 0.250000
v -0.125000 4.000000 0.250000
v -0.250000 1.500000 0.250000
v -0.250000 2.500000 -0.250000
v 0.250000 2.500000 -0.250000
v 0.250000 2.500000 0.250000
v -0.125000 2.000000 0.250000
v 0.250000 2.000000 0.125000
v 0.125000 2.000000 -0.250000
v -0.250000 2.000000 -0.125000
v -0.250000 0.000000 -0.125000
v -0.250000 2.500000 0.250000
v -0.250000 4.000000 0.125000
v -0.250000 1.500000 -0.250000
v 0.125000 0.000000 -0.250000
v -0.125000 4.000000 -0.250000
v 0.250000 1.500000 -0.250000
v 0.250000 0.000000 0.125000
v 0.250000 4.000000 -0.125000
v 0.250000 1.500000 0.250000
v -0.125000 0.000000 0.250000
v 0.125000 4.000000 0.250000
v -0.250000 0.500000 0.250000
v -0.250000 3.500000 -0.250000
v 0.250000 3.500000 -0.250000
v 0.250000 3.500000 0.250000
v 0.125000 2.000000 0.250000
v 0.250000 2.000000 -0.125000
v -0.125000 2.000000 -0.250000
v -0.250000 2.000000 0.125000
v -0.250000 1.000000 -0.125000
v -0.250000 1.000000 0.125000
v -0.250000 0.500000 0.000000
v -0.250000 1.500000 0.000000
v 0.125000 1.000000 -0.250000
v -0.125000 1.000000 -0.250000
v 0.000000 0.500000 -0.250000
v 0.000000 1.500000 -0.250000
v 0.250000 1.000000 0.125000
v 0.250000 1.000000 -0.125000
v 0.250000 0.500000 0.000000
v 0.250000 1.500000 0.000000
v -0.125000 1.000000 0.250000
v 0.125000 1.000000 0.250000
v 0.000000 0.500000 0.250000
v 0.000000 1.500000 0.250000
v 0.000000 4.000000 0.125000
v 0.000000 4.000000 -0.125000
v 0.125000 4.000000 0.000000
v -0.125000 4.000000 0.000000
v 0.000000 0.000000 0.125000
v 0.000000 0.000000 -0.125000
v -0.125000 0.000000 0.000000
v 0.125000 0.000000 0.000000
v -0.125000 3.000000 0.250000
v 0.125000 3.000000 0.250000
v 0.000000 2.500000 0.250000
v 0.000000 3.500000 0.250000
v 0.250000 3.000000 0.125000
v 0.250000 3.000000 -0.125000
v 0.250000 2.500000 0.000000
v 0.250000 3.500000 0.000000
v 0.125000 3.000000 -0.250000
v -0.125000 3.000000 -0.250000
v 0.000000 2.500000 -0.250000
v 0.000000 3.500000 -0.250000
v -0.250000 3.000000 -0.125000
v -0.250000 3.000000 0.125000
v -0.250000 2.500000 0.000000
v -0.250000 3.500000 0.000000
v -0.250000 3.500000 0.125000
v -0.250000 2.500000 0.125000
v -0.250000 2.500000 -0.125000
v -0.125000 3.500000 -0.250000
v -0.125000 2.500000 -0.250000
v 0.125000 2.500000 -0.250000
v 0.250000 3.500000 -0.125000
v 0.250000 2.500000 -0.125000
v 0.250000 2.500000 0.125000
v 0.125000 3.500000 0.250000
v 0.125000 2.500000 0.250000
v -0.125000 2.500000 0.250000
v 0.125000 0.000000 -0.125000
v -0.125000 0.000000 -0.125000
v -0.125000 0.000000 0.125000
v -0.125000 4.000000 -0.125000
v 0.125000 4.000000 -0.125000
v 0.125000 4.000000 0.125000
v 0.125000 1.500000 0.250000
v 0.125000 0.500000 0.250000
v -0.125000 0.500000 0.250000
v 0.250000 1.500000 -0.125000
v 0.250000 0.500000 -0.125000
v 0.250000 0.500000 0.125000
v -0.125000 1.500000 -0.250000
v -0.125000 0.500000 -0.250000
v 0.125000 0.500000 -0.250000
v -0.250000 1.500000 0.125000
v -0.250000 0.500000 0.125000
v -0.250000 0.500000 -0.125000
v -0.250000 1.500000 -0.125000
v 0.125000 1.500000 -0.250000
v 0.250000 1.500000 0.125000
v -0.125000 1.500000 0.250000
v -0.125000 4.000000 0.125000
v 0.125000 0.000000 0.125000
v -0.125000 3.500000 0.250000
v 0.250000 3.500000 0.125000
v 0.125000 3.500000 -0.250000
v -0.250000 3.500000 -0.125000
vn -1.0000 0.0000 0.0000
vn 0.0000 0.0000 -1.0000
vn 1.0000 0.0000 0.0000
vn 0.0000 0.0000 1.0000
vn 0.0000 -1.0000 0.0000
vn 0.0000 1.0000 0.0000
usemtl None
s off
f 162//1 45//1 4//1 76//1
f 161//2 48//2 8//2 77//2
f 160//3 51//3 6//3 78//3
f 159//4 54//4 2//4 44//4
f 158//5 70//5 5//5 53//5
f 157//6 65//6 2//6 54//6
f 156//4 59//4 9//4 55//4
f 155//3 60//3 12//3 72//3
f 154//2 61//2 11//2 69//2
f 153//1 62//1 10//1 66//1
f 152//1 83//1 16//1 46//1
f 151//1 84//1 33//1 85//1
f 150//1 82//1 32//1 86//1
f 149//2 87//2 19//2 49//2
f 148//2 88//2 34//2 89//2
f 147//2 81//2 31//2 90//2
f 146//3 91//3 22//3 52//3
f 145//3 92//3 35//3 93//3
f 144//3 80//3 30//3 94//3
f 143//4 95//4 25//4 75//4
f 142//4 96//4 36//4 97//4
f 141//4 79//4 29//4 98//4
f 140//6 99//6 24//6 74//6
f 139//6 100//6 37//6 101//6
f 138//6 45//6 15//6 102//6
f 137//5 103//5 23//5 73//5
f 136//5 104//5 38//5 105//5
f 135//5 50//5 20//5 106//5
f 134//4 107//4 14//4 64//4
f 133//4 108//4 39//4 109//4
f 132//4 74//4 24//4 110//4
f 131//3 111//3 28//3 58//3
f 130//3 112//3 40//3 113//3
f 129//3 71//3 21//3 114//3
f 128//2 115//2 27//2 57//2
f 127//2 116//2 41//2 117//2
f 126//2 68//2 18//2 118//2
f 125//1 119//1 26//1 56//1
f 124//1 120//1 42//1 121//1
f 123//1 65//1 15//1 122//1
f 120//1 123//1 122//1 42//1
f 14//1 44//1 123//1 120//1
f 44//1 2//1 65//1 123//1
f 82//1 124//1 121//1 32//1
f 9//1 64//1 124//1 82//1
f 64//1 14//1 120//1 124//1
f 62//1 125//1 56//1 10//1
f 32//1 121//1 125//1 62//1
f 121//1 42//1 119//1 125//1
f 116//2 126//2 118//2 41//2
f 26//2 76//2 126//2 116//2
f 76//2 4//2 68//2 126//2
f 81//2 127//2 117//2 31//2
f 10//2 56//2 127//2 81//2
f 56//2 26//2 116//2 127//2
f 61//2 128//2 57//2 11//2
f 31//2 117//2 128//2 61//2
f 117//2 41//2 115//2 128//2
f 112//3 129//3 114//3 40//3
f 27//3 77//3 129//3 112//3
f 77//3 8//3 71//3 129//3
f 80//3 130//3 113//3 30//3
f 11//3 57//3 130//3 80//3
f 57//3 27//3 112//3 130//3
f 60//3 131//3 58//3 12//3
f 30//3 113//3 131//3 60//3
f 113//3 40//3 111//3 131//3
f 108//4 132//4 110//4 39//4
f 28//4 78//4 132//4 108//4
f 78//4 6//4 74//4 132//4
f 79//4 133//4 109//4 29//4
f 12//4 58//4 133//4 79//4
f 58//4 28//4 108//4 133//4
f 59//4 134//4 64//4 9//4
f 29//4 109//4 134//4 59//4
f 109//4 39//4 107//4 134//4
f 104//5 135//5 106//5 38//5
f 17//5 67//5 135//5 104//5
f 67//5 7//5 50//5 135//5
f 63//5 136//5 105//5 13//5
f 3//5 47//5 136//5 63//5
f 47//5 17//5 104//5 136//5
f 43//5 137//5 73//5 1//5
f 13//5 105//5 137//5 43//5
f 105//5 38//5 103//5 137//5
f 100//6 138//6 102//6 37//6
f 18//6 68//6 138//6 100//6
f 68//6 4//6 45//6 138//6
f 71//6 139//6 101//6 21//6
f 8//6 48//6 139//6 71//6
f 48//6 18//6 100//6 139//6
f 51//6 140//6 74//6 6//6
f 21//6 101//6 140//6 51//6
f 101//6 37//6 99//6 140//6
f 96//4 141//4 98//4 36//4
f 22//4 72//4 141//4 96//4
f 72//4 12//4 79//4 141//4
f 53//4 142//4 97//4 23//4
f 5//4 52//4 142//4 53//4
f 52//4 22//4 96//4 142//4
f 73//4 143//4 75//4 1//4
f 23//4 97//4 143//4 73//4
f 97//4 36//4 95//4 143//4
f 92//3 144//3 94//3 35//3
f 19//3 69//3 144//3 92//3
f 69//3 11//3 80//3 144//3
f 50//3 145//3 93//3 20//3
f 7//3 49//3 145//3 50//3
f 49//3 19//3 92//3 145//3
f 70//3 146//3 52//3 5//3
f 20//3 93//3 146//3 70//3
f 93//3 35//3 91//3 146//3
f 88//2 147//2 90//2 34//2
f 16//2 66//2 147//2 88//2
f 66//2 10//2 81//2 147//2
f 47//2 148//2 89//2 17//2
f 3//2 46//2 148//2 47//2
f 46//2 16//2 88//2 148//2
f 67//2 149//2 49//2 7//2
f 17//2 89//2 149//2 67//2
f 89//2 34//2 87//2 149//2
f 84//1 150//1 86//1 33//1
f 25//1 55//1 150//1 84//1
f 55//1 9//1 82//1 150//1
f 43//1 151//1 85//1 13//1
f 1//1 75//1 151//1 43//1
f 75//1 25//1 84//1 151//1
f 63//1 152//1 46//1 3//1
f 13//1 85//1 152//1 63//1
f 85//1 33//1 83//1 152//1
f 83//1 153//1 66//1 16//1
f 33//1 86//1 153//1 83//1
f 86//1 32//1 62//1 153//1
f 87//2 154//2 69//2 19//2
f 34//2 90//2 154//2 87//2
f 90//2 31//2 61//2 154//2
f 91//3 155//3 72//3 22//3
f 35//3 94//3 155//3 91//3
f 94//3 30//3 60//3 155//3
f 95//4 156//4 55//4 25//4
f 36//4 98//4 156//4 95//4
f 98//4 29//4 59//4 156//4
f 99//6 157//6 54//6 24//6
f 37//6 102//6 157//6 99//6
f 102//6 15//6 65//6 157//6
f 103//5 158//5 53//5 23//5
f 38//5 106//5 158//5 103//5
f 106//5 20//5 70//5 158//5
f 107//4 159//4 44//4 14//4
f 39//4 110//4 159//4 107//4
f 110//4 24//4 54//4 159//4
f 111//3 160//3 78//3 28//3
f 40//3 114//3 160//3 111//3
f 114//3 21//3 51//3 160//3
f 115//2 161//2 77//2 27//2
f 41//2 118//2 161//2 115//2
f 118//2 18//2 48//2 161//2
f 119//1 162//1 76//1 26//1
f 42//1 122//1 162//1 119//1
f 122//1 15//1 45//1 162//1
